<svg width="261" height="130" viewBox="0 0 261 130" fill="none" xmlns="http://www.w3.org/2000/svg">
<path d="M-1.30441 127.616C53.2136 53.9696 166.714 14.1329 258.657 43.438" stroke="#FFA412" stroke-width="3" stroke-linecap="round" stroke-linejoin="round" stroke-dasharray="13.7 13.7"/>
<path d="M50.9677 100.854C51.5986 102.091 52.7555 102.867 54.0613 102.889C54.7345 102.914 55.3995 102.725 55.9789 102.368C56.4811 102.058 56.9191 101.623 57.2436 101.064L80.6297 63.6841C81.3819 62.4209 81.429 60.8206 80.7661 59.5204C80.1031 58.2201 78.8476 57.4506 77.4452 57.4883L36.2941 59.9263C34.9904 59.9583 33.8336 60.7267 33.1887 61.9512C32.5351 63.2087 32.5224 64.6775 33.1533 65.9148C33.2281 66.0616 33.3223 66.1965 33.4551 66.3076L48.4149 79.4666L50.8311 100.387C50.8373 100.549 50.8929 100.707 50.9677 100.854Z" fill="#FFA412"/>
<path d="M54.1603 76.681C54.1928 76.6739 54.2065 76.6655 54.234 76.6486L65.1132 69.9567C65.539 69.6948 65.762 69.2479 65.6066 68.9435C65.4511 68.639 64.9823 68.6048 64.5564 68.8667L53.6772 75.5585C53.6497 75.5754 53.641 75.5937 53.6135 75.6106L45.3391 70.5436C45.2649 70.2924 45.4245 70.0393 45.5006 69.9409C45.5854 69.8242 45.8374 69.5401 46.2648 69.4579L73.3691 63.5363C73.8102 63.4457 73.9768 63.6658 74.027 63.764C74.0771 63.8622 74.1613 64.1331 73.8694 64.4804L55.0991 86.7894C54.8209 87.1283 54.4736 87.2258 54.3386 87.2443C54.2174 87.2543 53.9424 87.2815 53.7858 87.0809L54.1603 76.681ZM52.203 87.9333C52.4989 88.5127 53.1818 88.7895 54.0329 88.6532C54.4703 88.5906 54.9225 88.4157 55.3346 88.1622C55.6917 87.9425 56.0188 87.6639 56.2833 87.3335L75.0723 65.0259C75.6823 64.2764 75.8634 63.4294 75.5524 62.8205C75.2415 62.2117 74.4935 61.949 73.5738 62.1276L46.4608 68.0675C45.6061 68.2319 44.7782 68.7669 44.2418 69.484C43.6968 70.2193 43.5505 70.9933 43.8465 71.5727C43.8816 71.6414 43.9304 71.7017 44.0067 71.7451L52.544 76.9731L52.1576 87.7031C52.1465 87.7873 52.1678 87.8645 52.203 87.9333Z" fill="#171827"/>
</svg>
