<svg width="444" height="442" viewBox="0 0 444 442" fill="none" xmlns="http://www.w3.org/2000/svg">
<g clip-path="url(#clip0_92_6239)">
<mask id="mask0_92_6239" style="mask-type:luminance" maskUnits="userSpaceOnUse" x="0" y="0" width="444" height="442">
<path d="M444 0H0V442H444V0Z" fill="white"/>
</mask>
<g mask="url(#mask0_92_6239)">
<path d="M98.7446 284.676C69.0543 203.774 76.1705 42.2761 76.246 40.6551L76.2615 40.3313L76.579 40.2617L117.605 31.3477L117.786 32.1687L77.0763 41.0142C76.7277 49.189 70.5406 205.375 99.5382 284.387L98.7446 284.676Z" fill="white"/>
<path d="M353.225 284.676L352.432 284.386C381.438 205.38 375.243 49.209 374.894 41.0165L281.792 20.9221L281.971 20.0989L375.708 40.3314L375.723 40.6552C375.799 42.2762 382.927 203.774 353.225 284.676Z" fill="white"/>
<path d="M131.573 29.0913L131.393 28.2703L225.482 8.02783L225.571 8.04662L260.003 15.4048L259.825 16.2269L225.482 8.88752L131.573 29.0913Z" fill="white"/>
<path d="M367.227 48.5493L217.028 16.4988L67.8433 48.5493C67.8433 48.5493 60.2875 209.194 90.3707 290.214C120.421 371.1 217.028 413.844 217.028 413.844C217.028 413.844 314.664 371.1 344.697 290.214C374.789 209.194 367.227 48.5493 367.227 48.5493ZM321.992 275.585C297.317 345.037 217.122 381.741 217.122 381.741C217.122 381.741 137.761 345.037 113.078 275.585C88.3683 206.014 94.5721 68.0747 94.5721 68.0747L217.122 40.558L340.498 68.0747C340.498 68.0747 346.71 206.014 321.992 275.585Z" fill="#FFA412"/>
<path d="M157.605 377.234C124.363 350.903 101.609 321.674 89.9756 290.359C85.893 279.364 82.2799 266.254 79.2363 251.393L80.0644 251.225C83.0991 266.045 86.7 279.113 90.7681 290.067C102.348 321.236 125.013 350.341 158.131 376.575L157.605 377.234Z" fill="#58553E"/>
<path d="M321.992 278.352C297.317 348.629 217.122 385.763 217.122 385.763C217.122 385.763 141.092 350.187 114.726 282.777C114.152 281.314 113.602 279.841 113.078 278.352C88.3682 207.964 94.572 68.404 94.572 68.404L202.779 43.8144L217.122 40.5569L340.498 68.404C340.498 68.404 346.71 207.964 321.992 278.352Z" fill="#12131F"/>
<path d="M134.243 202.903C134.479 233.438 134.949 261.346 135.235 276.569C134.563 275.003 133.94 273.438 133.336 271.838C126.175 252.751 121.654 228.132 118.847 202.903H134.243Z" fill="#58553E"/>
<path d="M134.109 185.069H116.862C112.812 132.124 115.164 82.6783 115.164 82.6783L136.765 78.1025C134.412 93.8654 133.941 139.779 134.109 185.069Z" fill="#58553E"/>
<path d="M225.484 433.855C224 433.994 222.517 434.01 221.058 433.904L225.484 433.855Z" fill="#FFEDC5"/>
<path d="M225.484 433.855C224 433.994 222.517 434.01 221.058 433.904L225.484 433.855Z" fill="#FFEDC5"/>
<path d="M91.1089 249.147H18.0376C15.7543 249.147 13.9039 247.303 13.9039 245.029V196.345C13.9039 194.071 15.7543 192.228 18.0376 192.228H91.1089C93.3933 192.228 95.2425 194.071 95.2425 196.345V245.029C95.2425 247.303 93.3933 249.147 91.1089 249.147Z" fill="#FFA412"/>
<path d="M91.4418 229.242H90.5971V200.588C90.5971 198.549 88.931 196.89 86.8819 196.89H13.804C8.63138 196.773 10.3574 204.338 10.0888 207.425H9.2441C9.44169 203.731 7.89213 195.942 13.804 196.05H86.8819C89.3961 196.05 91.4418 198.084 91.4418 200.588V229.242Z" fill="#58553E"/>
<path d="M86.8819 253.852H21.5873V253.011H86.8819C92.9314 253.23 89.92 241.266 90.596 237.977H91.4418C90.808 241.985 93.906 253.989 86.8819 253.852Z" fill="#58553E"/>
<path d="M10.0877 243.795H9.24414V211.505H10.0877V243.795Z" fill="#58553E"/>
<path d="M63.2855 212.91H58.6613V206.795H63.2855V212.91Z" fill="#FFA412"/>
<path d="M64.5143 205.134H57.4303V203.222H64.5143V205.134Z" fill="#FFA412"/>
<path d="M63.9361 206.987H58.0098V205.188H63.9361V206.987Z" fill="#FFA412"/>
<path d="M30.9857 218.511V214.209L50.4074 205.662L69.7003 214.209V218.511H30.9857Z" fill="#FFA412"/>
<path d="M34.0448 239.717H45.5599V243.314H34.0448V239.717Z" fill="#58553E"/>
<path d="M66.8575 243.317H55.3424V239.719H66.8575V243.317Z" fill="#58553E"/>
<path d="M50.4151 209.212L34.0437 216.254V239.72H66.8575V216.254L50.4151 209.212ZM43.2434 230.009H36.6045V221.276H43.2434V230.009ZM64.2956 230.009H57.6645V221.276H64.2956V230.009Z" fill="#58553E"/>
<path d="M55.3413 243.317H45.5599V239.719H55.3413V243.317Z" fill="#58553E"/>
<path d="M55.3413 239.717H45.5599V222.258H55.3413V239.717Z" fill="#FFA412"/>
<path d="M48.3916 231.961H46.5291V231.262H48.3916V231.961Z" fill="#58553E"/>
<path d="M89.0742 208.311H97.5279C99.2284 208.311 100.61 209.688 100.61 211.38C100.61 213.073 99.2284 214.448 97.5279 214.448H89.0742C87.3748 214.448 85.9917 213.073 85.9917 211.38C85.9917 209.688 87.3748 208.311 89.0742 208.311ZM97.5279 213.608C98.7611 213.608 99.7657 212.609 99.7657 211.38C99.7657 210.152 98.7611 209.152 97.5279 209.152H89.0742C87.841 209.152 86.8375 210.152 86.8375 211.38C86.8375 212.609 87.841 213.608 89.0742 213.608H97.5279Z" fill="#171827"/>
<path d="M225.484 433.855C224 433.994 222.517 434.01 221.058 433.904L225.484 433.855Z" fill="#FFEDC5"/>
<path d="M114.321 139.008H43.8439C40.8447 139.008 38.4127 136.587 38.4127 133.6V87.4972C38.4127 84.5104 40.8447 82.0894 43.8439 82.0894H114.321C117.322 82.0894 119.754 84.5104 119.754 87.4972V133.6C119.754 136.587 117.322 139.008 114.321 139.008Z" fill="#BCBCBC"/>
<path d="M115.951 119.104H115.106V90.4499C115.106 88.41 113.44 86.7525 111.391 86.7525H38.3128C36.2648 86.7525 34.5987 88.41 34.5987 90.4499V97.2854H33.754V90.4499C33.754 87.9459 35.7998 85.9116 38.3128 85.9116H111.391C113.905 85.9116 115.951 87.9459 115.951 90.4499V119.104Z" fill="#58553E"/>
<path d="M111.391 143.714H46.0961V142.873H111.391C113.439 142.873 115.105 141.213 115.105 139.175V127.84H115.951V139.175C115.951 141.678 113.905 143.714 111.391 143.714Z" fill="#58553E"/>
<path d="M34.5987 133.656H33.754V101.366H34.5987V133.656Z" fill="#58553E"/>
<path d="M88.5879 108.23L86.1737 108.448L85.1114 99.809C84.9316 98.3548 84.2945 97.0344 83.3343 96.0089C82.8903 95.5349 82.3819 95.1304 81.8158 94.7978C81.6737 94.7139 81.5317 94.6376 81.384 94.5669L81.9568 92.8298C82.7294 92.9834 83.4575 93.2663 84.1135 93.6508C84.6796 93.9835 85.1891 94.3879 85.6331 94.8619C86.5922 95.8874 87.2293 97.2067 87.4102 98.662L88.5879 108.23Z" fill="#FFA412"/>
<path d="M86.1737 108.448L78.6213 109.129L76.6832 108.826L81.3841 94.5669C81.5317 94.6365 81.6738 94.715 81.8159 94.7978C82.382 95.1315 82.8903 95.5338 83.3343 96.0089C84.2945 97.0344 84.9316 98.3537 85.1115 99.809L86.1737 108.448Z" fill="#58553E"/>
<path d="M98.6702 119.061L82.6529 118.49L68.2906 117.979L55.8064 117.537C53.663 117.537 51.6539 116.473 50.4573 114.704L48.7202 112.14L47.3926 110.184C47.2317 109.941 47.1484 109.685 47.1362 109.422C47.0973 108.384 48.2684 107.724 49.1819 108.23L52.9093 110.293C54.5255 111.184 56.3936 111.519 58.2218 111.23L90.6748 106.167C92.1167 105.918 95.3868 105.591 98.2584 108.692C98.5225 108.974 98.7789 109.288 99.0365 109.635C99.8534 110.038 100.569 110.436 101.174 110.826C108.224 115.332 102.127 119.061 98.6702 119.061Z" fill="#58553E"/>
<path d="M83.3732 117.913L70.788 127.981C66.7188 131.404 61.9347 132.648 58.9343 131.071L60.0488 129.507C62.8682 129.718 66.3769 128.372 69.4727 125.771L81.2875 116.318L82.857 116.382C83.6618 116.407 83.9981 117.414 83.3732 117.913Z" fill="#FFA412"/>
<path d="M81.2864 116.318L69.4738 125.771C66.3769 128.372 62.8693 129.718 60.0499 129.507L60.4284 128.976L69.5116 116.26C69.6792 116.023 69.9556 115.888 70.2519 115.901L81.0678 116.311L81.2864 116.318Z" fill="#58553E"/>
<path d="M45.2792 113.79L49.8368 111.604C49.9101 111.568 49.9956 111.573 50.0644 111.615L53.0592 113.411C53.249 113.524 53.1968 113.814 52.9781 113.851L48.5692 114.618C47.1218 114.907 45.7953 114.572 45.2792 113.79Z" fill="#58553E"/>
<path d="M87.0684 112.8C87.0684 113.422 86.56 113.934 85.9284 113.934H85.369C84.7185 113.934 84.229 113.331 84.229 112.8C84.229 112.172 84.744 111.665 85.369 111.665H85.9284C86.56 111.665 87.0684 112.172 87.0684 112.8Z" fill="#58553E"/>
<path d="M83.0313 112.8C83.0313 113.422 82.5229 113.934 81.8924 113.934H81.3319C80.6814 113.934 80.1919 113.331 80.1919 112.8C80.1919 112.172 80.7069 111.665 81.3319 111.665H81.8924C82.5229 111.665 83.0313 112.172 83.0313 112.8Z" fill="#58553E"/>
<path d="M78.9954 112.8C78.9954 113.422 78.487 113.934 77.8554 113.934H77.296C76.6455 113.934 76.156 113.331 76.156 112.8C76.156 112.172 76.671 111.665 77.296 111.665H77.8554C78.487 111.665 78.9954 112.172 78.9954 112.8Z" fill="#58553E"/>
<path d="M74.9594 112.8C74.9594 113.422 74.451 113.934 73.8261 113.934H73.26C72.6096 113.934 72.1267 113.331 72.1267 112.8C72.1267 112.172 72.6351 111.665 73.26 111.665H73.8261C74.451 111.665 74.9594 112.172 74.9594 112.8Z" fill="#58553E"/>
<path d="M70.9223 112.8C70.9223 113.422 70.4139 113.934 69.789 113.934H69.2296C68.5724 113.934 68.0896 113.331 68.0896 112.8C68.0896 112.172 68.598 111.665 69.2296 111.665H69.789C70.4139 111.665 70.9223 112.172 70.9223 112.8Z" fill="#58553E"/>
<path d="M101.173 110.826C98.9909 114.049 94.3556 114.191 92.3476 112.781C91.0278 111.851 91.716 110.204 93.7051 110.256C95.54 110.3 97.5291 109.16 98.2572 108.692C98.5203 108.974 98.7789 109.288 99.0365 109.634C99.8534 110.038 100.568 110.435 101.173 110.826Z" fill="#58553E"/>
<path d="M39.9766 127.595H31.5251C29.8246 127.595 28.4415 126.219 28.4415 124.527C28.4415 122.834 29.8246 121.458 31.5251 121.458H39.9766C41.6761 121.458 43.0602 122.834 43.0602 124.527C43.0602 126.219 41.6761 127.595 39.9766 127.595ZM31.5251 122.299C30.2919 122.299 29.2862 123.298 29.2862 124.527C29.2862 125.754 30.2919 126.755 31.5251 126.755H39.9766C41.2099 126.755 42.2133 125.754 42.2133 124.527C42.2133 123.298 41.2099 122.299 39.9766 122.299H31.5251Z" fill="#5E6ADF"/>
<path d="M225.484 433.855C224 433.994 222.517 434.01 221.058 433.904L225.484 433.855Z" fill="#FFEDC5"/>
<path d="M325.925 111.781H255.448C252.448 111.781 250.016 109.36 250.016 106.373V60.2699C250.016 57.2831 252.448 54.8621 255.448 54.8621H325.925C328.925 54.8621 331.355 57.2831 331.355 60.2699V106.374C331.355 109.36 328.925 111.781 325.925 111.781Z" fill="#FFA412"/>
<path d="M261.109 96.0454V88.7226L259.601 86.0629C259.213 85.3767 259.731 84.5446 260.549 84.5391L267.682 84.4916C267.674 84.4739 274.35 78.119 274.35 78.119C275.065 77.4395 276.034 77.0571 277.043 77.0571H289.962C290.775 77.0571 291.565 77.3035 292.218 77.7621L293.528 78.6793L304.117 86.096L312.048 87.432C313.651 87.7016 314.947 88.8221 315.383 90.3138L316.472 96.0454H261.109Z" fill="white"/>
<path d="M304.118 86.096H275.933C275.177 85.7379 274.803 84.8263 275.243 84.0407L277.797 79.4759C278.073 78.9864 278.609 78.6792 279.193 78.6792H293.529L304.118 86.096Z" fill="#58553E"/>
<path d="M287.837 86.096H286.146V78.6792H287.837V86.096Z" fill="#58553E"/>
<path d="M287.837 96.8377H286.146V88.8154H287.837V96.8377Z" fill="#58553E"/>
<path d="M316.861 98.399H260.442L259.87 96.4288C259.668 95.7315 260.193 95.0376 260.921 95.0376H316.494C317.247 95.0376 317.774 95.7757 317.528 96.4829L316.861 98.399Z" fill="#58553E"/>
<path d="M277.537 97.7426C277.537 100.988 274.893 103.619 271.633 103.619C268.374 103.619 265.731 100.988 265.731 97.7426C265.731 94.4972 268.374 91.8662 271.633 91.8662C274.893 91.8662 277.537 94.4972 277.537 97.7426Z" fill="#58553E"/>
<path d="M275.314 97.7427C275.314 99.7659 273.667 101.406 271.635 101.406C269.602 101.406 267.953 99.7659 267.953 97.7427C267.953 95.7194 269.602 94.0796 271.635 94.0796C273.667 94.0796 275.314 95.7194 275.314 97.7427Z" fill="#58553E"/>
<path d="M311.649 97.6423C311.649 100.888 309.005 103.519 305.745 103.519C302.486 103.519 299.843 100.888 299.843 97.6423C299.843 94.3969 302.486 91.7659 305.745 91.7659C309.005 91.7659 311.649 94.3969 311.649 97.6423Z" fill="#58553E"/>
<path d="M309.425 97.6421C309.425 99.6653 307.778 101.305 305.745 101.305C303.713 101.305 302.064 99.6653 302.064 97.6421C302.064 95.6188 303.713 93.979 305.745 93.979C307.778 93.979 309.425 95.6188 309.425 97.6421Z" fill="#58553E"/>
<path d="M327.554 91.8763H326.709V63.2226C326.709 61.1827 325.042 59.5252 322.995 59.5252H249.917C247.869 59.5252 246.202 61.1827 246.202 63.2226V70.0581H245.358V63.2226C245.358 60.7186 247.404 58.6843 249.917 58.6843H322.995C325.509 58.6843 327.554 60.7186 327.554 63.2226V91.8763Z" fill="#58553E"/>
<path d="M322.994 116.486H257.701V115.645H322.994C325.042 115.645 326.709 113.986 326.709 111.946V100.611H327.553V111.946C327.553 114.449 325.509 116.486 322.994 116.486Z" fill="#58553E"/>
<path d="M246.202 106.43H245.358V74.1399H246.202V106.43Z" fill="#58553E"/>
<path d="M307.974 61.4678V53.0532C307.974 51.3614 309.357 49.9846 311.056 49.9846C312.757 49.9846 314.139 51.3614 314.139 53.0532V61.4678C314.139 63.1595 312.757 64.5375 311.056 64.5375C309.357 64.5375 307.974 63.1595 307.974 61.4678ZM313.294 53.0532C313.294 51.8255 312.291 50.8255 311.056 50.8255C309.823 50.8255 308.819 51.8255 308.819 53.0532V61.4678C308.819 62.6954 309.823 63.6944 311.056 63.6944C312.291 63.6944 313.294 62.6954 313.294 61.4678V53.0532Z" fill="#FFA412"/>
<path d="M225.484 433.855C224 433.994 222.517 434.01 221.058 433.904L225.484 433.855Z" fill="#FFEDC5"/>
<path d="M429.369 225.24H358.892C355.893 225.24 353.461 222.819 353.461 219.832V173.729C353.461 170.742 355.893 168.321 358.892 168.321H429.369C432.369 168.321 434.801 170.742 434.801 173.729V219.832C434.801 222.819 432.369 225.24 429.369 225.24Z" fill="#FFA412"/>
<path d="M431 205.335H430.155V176.682C430.155 174.642 428.488 172.983 426.44 172.983H353.362C351.314 172.983 349.647 174.642 349.647 176.682V183.517H348.802V176.682C348.802 174.178 350.848 172.142 353.362 172.142H426.44C428.954 172.142 431 174.178 431 176.682V205.335Z" fill="white"/>
<path d="M426.439 229.946H361.144V229.105H426.439C428.487 229.105 430.154 227.445 430.154 225.407V214.072H430.999V225.407C430.999 227.909 428.953 229.946 426.439 229.946Z" fill="white"/>
<path d="M349.647 219.888H348.803V187.599H349.647V219.888Z" fill="white"/>
<path d="M407.762 205.481L389.055 220.326L370.764 205.015C357.155 190.975 375.636 172.899 389.497 186.695C403.649 173.098 421.883 191.672 407.762 205.481Z" fill="#171827"/>
<path d="M384.11 216.451L379.533 201.48H365.409V200.198H380.488L383.965 211.572L389.121 190.226L392.394 200.198H414.391V201.48H391.46L389.309 194.927L384.11 216.451Z" fill="white"/>
<path d="M413.97 223.234V231.648C413.97 233.339 412.587 234.717 410.888 234.717C409.187 234.717 407.805 233.339 407.805 231.648V223.234C407.805 221.542 409.187 220.165 410.888 220.165C412.587 220.165 413.97 221.542 413.97 223.234ZM408.65 231.648C408.65 232.875 409.653 233.875 410.888 233.875C412.121 233.875 413.125 232.875 413.125 231.648V223.234C413.125 222.005 412.121 221.005 410.888 221.005C409.653 221.005 408.65 222.005 408.65 223.234V231.648Z" fill="#58553E"/>
<path d="M225.484 433.855C224 433.994 222.517 434.01 221.058 433.904L225.484 433.855Z" fill="#FFEDC5"/>
<path d="M300.767 188.059C300.767 188.059 307.047 172.99 292.712 164.575C289 162.396 284.801 157.13 285.232 149.97C286.151 134.717 276.027 120.616 259.457 129.739L269.094 182.273L300.767 188.059Z" fill="#58553E"/>
<path d="M236.543 185.803C236.512 185.573 235.848 180.078 240.384 174.075C244.105 169.149 249.098 161.234 249.509 149.407L250.354 149.436C249.935 161.5 244.849 169.564 241.059 174.58C236.729 180.313 237.374 185.64 237.381 185.693L236.543 185.803Z" fill="#58553E"/>
<path d="M239.779 183.762C239.779 183.762 239.779 179.466 241.649 176.46C246.054 169.376 248.552 167.153 248.525 160.025C248.477 147.816 246.108 128.349 259.457 129.74L267.871 168.974L261.902 181.146L239.779 183.762Z" fill="#58553E"/>
<path d="M186.195 422.334L185.962 405.171L200.472 405.311L200.92 422.148L186.195 422.334Z" fill="#FBE3B4"/>
<path d="M183.031 433.298L185.733 419.859C192.415 425.198 201.391 417.268 201.391 417.268C201.391 417.268 202.615 419.894 206.789 421.559C210.526 423.048 221.9 424.681 223.179 433.489L183.031 433.298Z" fill="#58553E"/>
<path d="M205.101 420.93C203.511 422.847 201.208 423.541 201.084 423.582L200.855 422.798C200.879 422.791 202.888 422.178 204.331 420.563C204.569 420.685 204.823 420.807 205.101 420.93Z" fill="#58553E"/>
<path d="M208.979 422.177C207.397 424.421 204.774 425.213 204.651 425.246L204.412 424.462C204.437 424.454 206.675 423.776 208.134 421.948C208.397 422.014 208.683 422.095 208.979 422.177Z" fill="#58553E"/>
<path d="M201.841 168.889C201.841 168.889 198.38 183.588 184.257 185.482C170.134 187.375 161.926 168.459 161.926 168.459L172.282 165.139L174.482 150.45H190.814L193.815 165.613L201.841 168.889Z" fill="#FBE3B4"/>
<path d="M260.263 212.432C260.263 212.432 247.57 230.686 238.292 233.909C223.41 239.082 203.129 220.162 203.129 220.162L199.74 195.842L198.98 190.333L197.771 181.684L197.003 176.174L195.559 165.768C203.738 167.871 209.417 171.379 213.718 176.174C213.753 176.208 213.785 176.25 213.819 176.284C214.056 176.545 214.283 176.813 214.52 177.092C214.892 177.537 215.256 178 215.602 178.471C215.822 178.748 216.025 179.026 216.227 179.312C216.304 179.413 216.372 179.523 216.448 179.623C216.684 179.968 216.921 180.313 217.148 180.666C217.368 181.003 217.579 181.339 217.791 181.684C217.824 181.744 217.859 181.802 217.901 181.861C218.053 182.114 218.205 182.375 218.357 182.635C218.467 182.82 218.568 183.006 218.669 183.19C218.813 183.442 218.957 183.703 219.092 183.956C219.253 184.259 219.413 184.553 219.565 184.855C219.726 185.159 219.878 185.461 220.03 185.772C220.74 187.202 221.492 188.743 222.261 190.333C222.404 190.627 222.548 190.921 222.692 191.216C223.428 192.738 224.188 194.303 224.932 195.842C228.641 203.549 232.038 210.716 232.038 210.716L255.302 199.763L260.263 212.432Z" fill="#5E6ADF"/>
<path d="M288.917 412.297L333.472 412.186L302.07 403.389L288.917 412.297Z" fill="#58553E"/>
<path d="M244.13 405.691L231.427 413.101H272.556L244.13 405.691Z" fill="#58553E"/>
<path d="M263.486 433.014L259.429 418.032C254.433 422.358 244.734 417.775 244.734 417.775C244.734 417.775 244.827 420.169 239.664 421.805C236.059 422.946 225.468 424.74 224.266 433.014H263.486Z" fill="#58553E"/>
<path d="M241.25 421.216C242.744 423.017 244.906 423.669 245.022 423.708L245.237 422.971C245.215 422.963 243.328 422.387 241.972 420.87C241.749 420.985 241.512 421.101 241.25 421.216Z" fill="#58553E"/>
<path d="M237.607 422.388C239.093 424.497 241.557 425.24 241.673 425.27L241.896 424.534C241.872 424.528 239.77 423.891 238.4 422.174C238.154 422.235 237.884 422.312 237.607 422.388Z" fill="#58553E"/>
<path d="M259.053 418.522L257.63 404.739H242.223L245.57 418.122C245.57 418.122 247.355 422.609 252.534 422.444C257.515 422.284 259.053 418.522 259.053 418.522Z" fill="#FBE3B4"/>
<path d="M324.088 418.522L322.665 404.739H307.258L311.135 418.624C311.135 418.624 312.571 421.84 317.569 422.444C322.512 423.04 324.088 418.522 324.088 418.522Z" fill="#FBE3B4"/>
<path d="M328.823 433.014L324.766 418.032C319.77 422.358 310.071 417.775 310.071 417.775C310.071 417.775 310.164 420.169 305 421.805C301.396 422.946 290.805 424.74 289.602 433.014H328.823Z" fill="#58553E"/>
<path d="M306.585 421.216C308.08 423.017 310.243 423.669 310.358 423.708L310.574 422.971C310.551 422.963 308.664 422.387 307.309 420.87C307.086 420.985 306.847 421.101 306.585 421.216Z" fill="#58553E"/>
<path d="M302.943 422.388C304.43 424.497 306.894 425.24 307.009 425.27L307.233 424.534C307.209 424.528 305.107 423.891 303.737 422.174C303.491 422.235 303.221 422.312 302.943 422.388Z" fill="#58553E"/>
<path d="M270.641 399.348C271.174 404.101 271.815 408.838 272.558 413.532C272.558 413.532 267.378 414.44 259.198 412.799C251.356 411.218 244.452 406.852 231.43 413.532C231.43 413.532 230.999 409.569 230.5 402.587C230.484 402.301 230.458 402.007 230.433 401.704C228.522 374.212 225.827 303.698 242.179 242.801L277.612 249.119C277.612 249.119 262.485 325.335 270.53 398.33C270.564 398.666 270.599 399.003 270.641 399.348Z" fill="white"/>
<path d="M333.892 412.201C333.892 412.201 324.79 414.043 308.937 409.736C300.123 407.347 293.33 409.694 288.919 412.294C288.919 412.294 256.951 315.938 260.136 245.585L300.285 258.75C301.206 308.114 322.373 378.492 330.629 402.855C330.722 403.133 330.816 403.41 330.909 403.68C332.759 409.105 333.892 412.201 333.892 412.201Z" fill="white"/>
<path d="M268.909 335.55L269.69 335.406C264.521 310.367 261.454 287.511 260.576 267.474L260.568 267.302L254.014 262.455L253.524 263.048L259.788 267.681C260.678 287.713 263.746 310.546 268.909 335.55Z" fill="#58553E"/>
<path d="M270.641 398.918C268.969 400.348 264.515 403.561 258.515 403.561C258.177 403.561 257.831 403.554 257.483 403.537C255.219 403.393 252.86 402.813 250.359 402.19C244.663 400.786 238.309 399.204 230.502 402.157C230.485 401.871 230.459 401.577 230.434 401.274C238.36 398.355 244.799 399.945 250.563 401.375C253.022 401.98 255.344 402.56 257.533 402.695C264.361 403.116 269.415 398.91 270.53 397.902C270.564 398.238 270.599 398.573 270.641 398.918Z" fill="#58553E"/>
<path d="M137.651 423.985L139.739 397.658L156.328 398.483L151.552 423.985H137.651Z" fill="#FBE3B4"/>
<path d="M207.14 234.094L218.346 413.511C218.346 413.511 209.716 415.015 202.381 415.302C191.448 415.729 181.206 413.511 181.206 413.511L165.137 237.711L207.14 234.094Z" fill="#798BE0"/>
<path d="M144.504 247.77L126.669 413.511C126.669 413.511 134.724 416.211 145.799 416.018C153.998 415.875 161.872 413.511 161.872 413.511L188.474 247.77H144.504Z" fill="#798BE0"/>
<path d="M138.047 273.973C138.047 273.973 139.293 275.714 139.973 279.389C140.588 282.68 142.759 288.539 145.932 291.079C146.338 291.407 146.858 291.02 146.536 290.3C145.983 288.989 144.783 286.974 145.115 286.818C145.82 286.524 148.153 292.73 149.61 291.974C150.708 291.399 146.465 285.125 146.772 284.926C147.387 284.53 150.035 290.961 151.426 290.187C152.747 289.454 148.55 284.92 148.92 284.525C149.304 284.119 151.858 288.37 152.774 287.915C154.161 287.227 149.117 280.946 149.482 280.396C150.023 279.488 152.652 282.668 153.51 281.673C154.338 280.749 150.393 277.114 149.668 276.36C147.994 274.621 146.384 274.578 145.609 271.416C142.523 258.836 141.793 242.687 146.614 226.818C141.803 225.167 131.663 222.384 124.288 216.354C124.182 218.13 118.698 244.567 138.047 273.973Z" fill="#FBE3B4"/>
<path d="M194.479 214.58L223.533 220.021L234.536 195.393L250.862 209.532C250.862 209.532 244.821 264.124 197.642 226.608L194.479 214.58Z" fill="#FBE3B4"/>
<path d="M201.095 230.044C201.095 230.044 205.554 222.276 205.554 215.689L222.814 218.554L233.441 190.738L250.575 216.299C250.575 216.299 244.31 237.848 229.575 240.069C216.988 241.966 201.095 230.044 201.095 230.044Z" fill="#58553E"/>
<path d="M204.405 256.774C201.126 257.881 197.424 258.559 193.406 258.901C188.313 259.339 182.699 259.236 176.758 258.792C174.438 258.625 172.066 258.398 169.651 258.137C166.175 257.75 162.618 257.285 159.011 256.774V174.67L166.997 167.655C174.764 178.61 192.456 178.824 198.733 167.188L199.1 172.913C199.1 172.92 200.409 193.611 200.409 193.611L204.405 256.774Z" fill="#58553E"/>
<path d="M212.667 223.258L209.466 221.892L209.799 221.117L213 222.485L212.667 223.258Z" fill="#FFA412"/>
<path d="M213.28 222.95L210.938 220.383L211.563 219.819L213.906 222.384L213.28 222.95Z" fill="#FFA412"/>
<path d="M193.882 278.233C193.684 272.872 193.523 264.708 193.406 258.901C193.032 240.441 193.12 219.853 194.05 198.113C194.877 178.895 195.543 165.802 195.543 165.802L199.854 167.219L199.1 172.921L209.294 193.48C210.296 205.96 211.292 218.454 212.368 230.766C213.531 244.004 214.783 259.59 216.231 272.143C208.357 275.123 200.886 277.075 193.882 278.233Z" fill="#5E6ADF"/>
<path d="M176.756 258.792C176.588 265.035 176.376 273.732 176.135 279.647C155.262 279.486 140.428 272.791 134.142 269.324L148.164 186.296L169.717 165.315C169.724 165.315 170.528 164.534 170.528 164.534C170.528 164.534 170.66 164.82 170.887 165.374C172.131 168.434 176.193 179.798 176.837 199.206C177.474 218.504 177.305 239.231 176.756 258.792Z" fill="#5E6ADF"/>
<path d="M149.52 273.758C143.119 274.975 138.013 276.908 133.914 280.131C128.161 268.961 123.821 251.281 122.953 234.669C122.19 220.056 123.686 204.62 129.428 190.282C133.705 179.604 146.153 167.282 170.524 164.531C170.524 164.531 156.872 203.577 152.613 214.835C144.27 236.886 149.52 273.758 149.52 273.758Z" fill="#5E6ADF"/>
<path d="M333.496 412.346C333.171 411.459 300.989 319.521 299.862 258.758L300.707 258.742C301.831 319.364 333.966 411.173 334.29 412.059L333.496 412.346Z" fill="#58553E"/>
<path d="M192.051 157.465C188.024 166.486 177.789 165.837 173.096 159.661L174.482 150.448H190.814L192.051 157.465Z" fill="#58553E"/>
<path d="M168.436 147.298C168.436 147.298 167.869 154.293 173.65 154.858L174.67 146.959L168.436 147.298Z" fill="#58553E"/>
<path d="M225.177 212.364C225.168 212.381 223.014 217.883 223.014 217.883H218.763L211.349 216.638L211.281 217.883H193.42C193.462 216.057 193.504 214.215 193.555 212.364H225.177Z" fill="#1E0039"/>
<path d="M212.475 232.032H193.217C193.233 230.207 193.25 228.374 193.276 226.523L202.808 226.574H202.935L208.469 226.599L211.985 226.614C211.985 226.614 212.442 231.603 212.475 232.032Z" fill="#1E0039"/>
<path d="M177.001 248.563C176.967 250.405 176.924 252.248 176.882 254.073H125.419C125.047 252.256 124.718 250.414 124.422 248.563H177.001Z" fill="#1E0039"/>
<path d="M214.411 254.073H193.318C193.292 252.256 193.268 250.413 193.251 248.563H213.913C214.072 250.405 214.242 252.247 214.411 254.073Z" fill="#1E0039"/>
<path d="M176.644 262.713C176.602 264.487 176.551 266.355 176.501 268.231H129.076C128.502 266.456 127.953 264.606 127.437 262.713H176.644Z" fill="#1E0039"/>
<path d="M215.796 268.231H193.596C193.554 266.364 193.512 264.487 193.479 262.713H215.221C215.416 264.588 215.602 266.439 215.796 268.231Z" fill="#1E0039"/>
<path d="M222.692 191.214V216.427H217.148V180.665C217.368 181.002 217.579 181.339 217.79 181.684C217.824 181.744 217.858 181.802 217.9 181.861C218.052 182.114 218.204 182.373 218.356 182.634C218.466 182.819 218.568 183.005 218.669 183.19C218.813 183.443 218.957 183.704 219.092 183.956C219.252 184.258 219.413 184.552 219.565 184.856C219.726 185.159 219.878 185.461 220.03 185.771C220.739 187.202 221.492 188.741 222.261 190.332C222.404 190.626 222.548 190.921 222.692 191.214Z" fill="#1E0039"/>
<path d="M208.469 171.488V274.793C206.602 275.365 204.751 275.879 202.934 276.341V168.333C204.97 169.251 206.804 170.303 208.469 171.488Z" fill="#1E0039"/>
<path d="M149.976 170.066V275.819C148.581 275.407 147.255 274.978 146.004 274.54C145.471 274.675 144.947 274.818 144.44 274.969V173.095C146.139 172.01 147.981 171 149.976 170.066Z" fill="#1E0039"/>
<path d="M135.754 180.355V278.807C135.12 279.219 134.503 279.656 133.912 280.126C132.602 277.577 131.36 274.683 130.219 271.537V188.497C131.301 186.236 132.754 183.931 134.605 181.684C134.968 181.238 135.357 180.792 135.754 180.355Z" fill="#1E0039"/>
<path d="M177.21 217.883H123.161C123.304 216.041 123.508 214.206 123.744 212.364H177.152C177.177 214.197 177.194 216.032 177.21 217.883Z" fill="#1E0039"/>
<path d="M177.246 226.521C177.246 228.356 177.236 230.198 177.219 232.032H122.842C122.783 230.207 122.757 228.364 122.774 226.521H177.246Z" fill="#1E0039"/>
<path d="M175.15 181.683H134.604C134.967 181.238 135.356 180.792 135.753 180.355C137.046 178.916 138.516 177.511 140.164 176.173H174.085C174.457 177.831 174.821 179.672 175.15 181.683Z" fill="#1E0039"/>
<path d="M217.791 181.683H194.781C194.873 179.681 194.957 177.84 195.034 176.173H213.718C214.977 177.562 216.1 179.06 217.148 180.666C217.368 181.002 217.58 181.338 217.791 181.683Z" fill="#1E0039"/>
<path d="M176.688 195.841H127.429C128.021 193.99 128.68 192.15 129.416 190.332H176.274C176.442 192.082 176.587 193.915 176.688 195.841Z" fill="#1E0039"/>
<path d="M224.932 195.841H194.155C194.231 193.932 194.316 192.099 194.391 190.332H222.261C222.405 190.627 222.547 190.921 222.692 191.216C223.426 192.738 224.188 194.302 224.932 195.841Z" fill="#1E0039"/>
<path d="M172.116 168.787V279.537C170.214 279.444 168.364 279.302 166.572 279.108V165.078C167.857 164.867 169.175 164.682 170.527 164.531C170.527 164.531 170.663 164.817 170.89 165.372C171.178 166.079 171.608 167.214 172.116 168.787Z" fill="#1E0039"/>
<path d="M197.722 147.77C197.722 147.77 197.858 154.449 192.334 154.657L191.818 147.094L197.722 147.77Z" fill="#58553E"/>
<path d="M192.664 126.384C187.998 121.908 177.611 119.759 171.42 131.202C168.816 136.014 169.389 148.362 173.333 156.345C177.087 163.943 188.762 164.902 193.385 156.345C198.315 147.218 198.609 132.088 192.664 126.384Z" fill="#FBE3B4"/>
<path d="M230.858 198.202C230.858 198.202 234.795 171.306 263.925 170.553C318.027 169.158 313.712 215.551 313.712 215.551C313.712 215.551 306.928 222.333 290.912 227.038L240.847 212.485C234.13 206.772 230.858 198.202 230.858 198.202Z" fill="#58553E"/>
<path d="M195.424 147.641C195.424 147.641 198.831 148.94 200.368 144.426C201.676 140.588 198.181 138.693 196.161 140.621L195.424 147.641Z" fill="#FBE3B4"/>
<path d="M195.904 141.658C195.904 141.658 193.315 138.349 189.348 139.195C179.277 141.344 174.67 135.357 174.67 135.357C170.363 138.065 169.55 143.953 169.55 143.953C169.55 143.953 168.908 142.56 167.018 142.297C167.018 142.297 166.905 140.717 165.621 135.452C164.939 132.656 164.071 126.161 171.364 126.499C171.364 126.499 177.44 120.498 185.779 120.821C197.454 121.272 199.539 128.286 199.984 130.826C200.967 136.431 199.649 140.268 199.649 140.268C197.345 139.252 195.904 141.658 195.904 141.658Z" fill="#58553E"/>
<path d="M170.961 147.662C170.961 147.662 167.553 148.961 166.016 144.447C164.709 140.609 168.204 138.714 170.223 140.642L170.961 147.662Z" fill="#FBE3B4"/>
<path d="M330.909 403.68C329.987 403.722 328.914 403.747 327.706 403.747C322.492 403.747 314.853 403.217 306.285 400.895C299.287 398.994 292.662 399.835 286.594 403.41L286.164 402.678C292.434 398.994 299.278 398.119 306.512 400.08C316.788 402.872 325.712 403.059 330.63 402.856C330.723 403.134 330.816 403.41 330.909 403.68Z" fill="#58553E"/>
<path d="M215.812 272.19C214.379 259.774 211.97 231.096 211.947 230.809C210.882 218.63 209.622 203.029 209.609 202.872L210.452 202.805C210.464 202.962 211.725 218.56 212.788 230.73C212.813 231.027 215.219 259.693 216.651 272.096L215.812 272.19Z" fill="#58553E"/>
<path d="M199.509 198.921L198.665 198.886L198.698 198.097C199.351 182.928 199.907 171.518 200.114 167.317L200.959 167.358C200.75 171.559 200.195 182.967 199.543 198.132L199.509 198.921Z" fill="#58553E"/>
<path d="M171.345 199.22C170.704 179.892 166.652 168.548 165.427 165.531L166.208 165.216C167.448 168.265 171.543 179.725 172.189 199.193L171.345 199.22Z" fill="#58553E"/>
<path d="M211.413 252.568C201.77 249.513 200.181 236.651 200.118 236.105L200.957 236.01C200.972 236.14 202.551 248.877 211.669 251.765L211.413 252.568Z" fill="#58553E"/>
<path d="M226.297 223.018C225.493 220.619 222.629 218.933 222.601 218.917L223.027 218.191C223.156 218.266 226.195 220.055 227.098 222.751L226.297 223.018Z" fill="#58553E"/>
<path d="M158.426 252.563L158.143 251.771C168.072 248.257 168.859 236.156 168.867 236.034L169.709 236.081C169.702 236.208 168.89 248.86 158.426 252.563Z" fill="#58553E"/>
<path d="M221.715 258.604L221.647 258.189C221.66 258.186 222.962 257.978 224.762 257.391L224.894 257.79C223.059 258.388 221.769 258.595 221.715 258.604Z" fill="#58553E"/>
<path d="M171.207 126.497L170.658 126.182C170.784 125.965 173.804 120.867 179.695 119.455C183.685 118.497 187.998 119.485 192.511 122.387L192.167 122.918C187.808 120.113 183.664 119.154 179.85 120.066C174.225 121.412 171.235 126.446 171.207 126.497Z" fill="#58553E"/>
<path d="M251.875 283.824C251.279 284.511 254.394 308.314 241.945 312.26C237.606 313.634 225.295 307.868 225.295 307.868L212.181 286.183C212.181 286.183 217.69 284.472 225.695 287.995C227.587 288.824 234.286 294.648 238.939 297.5C241.694 293.195 246.115 285.103 245.903 283.431C245.816 282.76 245.103 281.652 244.781 280.777C243.94 278.433 243.894 275.66 244.459 275.395C245.652 274.848 245.714 278.527 246.57 278.301C247.119 278.175 247.739 271.613 248.979 271.996C249.794 272.262 248.861 276.215 249.339 276.191C249.787 276.176 249.889 271.105 251.121 271.433C252.424 271.769 250.258 277.074 250.87 277.176C251.161 277.246 252.266 271.136 253.263 271.41C254.597 271.8 252.369 276.793 252.974 277.027C253.271 277.113 253.726 275.253 254.15 274.159C254.37 273.55 254.919 273.613 254.958 274.059C255.272 276.378 254.441 278.495 253.444 281.441C253.107 282.457 252.401 283.215 251.875 283.824Z" fill="#FBE3B4"/>
<path d="M187.791 422.252C187.791 422.252 182.835 396.271 188.475 384.531L185.398 369.39L203 370.411C203 370.411 203.342 381.129 202.488 385.552C201.634 389.975 196.164 424.124 196.164 424.124L188.645 424.634L187.791 422.252Z" fill="#FBE3B4"/>
<path d="M209.717 370.891L227.379 424.434L236.068 424.209L226.976 362.895L209.717 370.891Z" fill="#FBE3B4"/>
<path d="M210.05 433.096H185.441L187.409 422.293C187.409 422.293 192.875 425.756 196.99 422.541C196.99 422.541 197.964 423.599 199.316 424.54C199.455 424.628 199.594 424.718 199.734 424.807C200.111 425.044 200.498 425.261 200.906 425.44C200.996 425.479 201.084 425.519 201.174 425.549C201.333 425.618 201.493 425.687 201.652 425.746C204.802 426.954 208.708 427.585 210.05 433.096Z" fill="#BCBCBC"/>
<path d="M199.733 424.807C198.7 426.331 196.602 426.974 196.493 427.004L196.355 426.529C196.373 426.529 198.371 425.916 199.316 424.54C199.455 424.629 199.595 424.718 199.733 424.807Z" fill="#58553E"/>
<path d="M201.652 425.746C200.688 427.151 198.928 427.883 198.828 427.923L198.639 427.468C198.659 427.448 200.279 426.785 201.173 425.549C201.332 425.618 201.493 425.687 201.652 425.746Z" fill="#58553E"/>
<path d="M185.809 431.09H209.354L209.573 431.585H185.719L185.809 431.09Z" fill="#58553E"/>
<path d="M249.002 433.096H224.393L226.361 422.293C226.361 422.293 231.827 425.756 235.942 422.541C235.942 422.541 236.916 423.599 238.268 424.54C238.407 424.628 238.546 424.718 238.686 424.807C239.063 425.044 239.45 425.261 239.858 425.44C239.948 425.479 240.036 425.519 240.126 425.549C240.285 425.618 240.444 425.687 240.604 425.746C243.754 426.954 247.66 427.585 249.002 433.096Z" fill="#BCBCBC"/>
<path d="M238.686 424.807C237.652 426.331 235.554 426.974 235.446 427.004L235.307 426.529C235.327 426.529 237.324 425.916 238.268 424.54C238.407 424.629 238.547 424.718 238.686 424.807Z" fill="#58553E"/>
<path d="M240.605 425.746C239.641 427.151 237.881 427.883 237.781 427.923L237.592 427.468C237.612 427.448 239.232 426.785 240.126 425.549C240.285 425.618 240.446 425.687 240.605 425.746Z" fill="#58553E"/>
<path d="M224.761 431.09H248.306L248.525 431.585H224.671L224.761 431.09Z" fill="#58553E"/>
<path d="M153.674 433.559L153.35 419.705C146.461 425.209 137.208 417.033 137.208 417.033C137.208 417.033 135.946 419.741 131.644 421.456C127.79 422.992 116.065 424.676 114.746 433.757L153.674 433.559Z" fill="#58553E"/>
<path d="M133.383 420.808C135.023 422.785 137.397 423.5 137.523 423.542L137.761 422.734C137.735 422.726 135.665 422.096 134.178 420.429C133.933 420.556 133.671 420.682 133.383 420.808Z" fill="#58553E"/>
<path d="M129.386 422.095C131.017 424.409 133.722 425.225 133.848 425.259L134.093 424.451C134.068 424.442 131.76 423.744 130.256 421.86C129.987 421.928 129.69 422.011 129.386 422.095Z" fill="#58553E"/>
<path d="M295.372 209.323L304.65 258.295C304.65 258.295 288.747 261.333 264.671 255.247C246.548 250.665 235.446 243.07 235.446 243.07L244.51 196.186L258.075 172.324C258.075 172.324 265.096 180.099 274.16 171.025L296.883 183.549L295.372 209.323Z" fill="#58553E"/>
<path d="M277.437 171.945L274.254 155.889H261.472L259.062 171.945C259.062 171.945 268.123 183.006 277.437 171.945Z" fill="#FBE3B4"/>
<path d="M274.745 160.065C274.745 160.065 272.447 168.128 265.265 168.455C262.065 168.6 259.998 165.701 259.998 165.701L261.467 155.892H274.254L274.745 160.065Z" fill="#58553E"/>
<path d="M277.671 148.712C277.671 148.712 278.568 140.581 273.642 136.687C269.471 133.391 261.273 131.243 256.186 140.645C252.928 146.667 256.13 166.842 265.372 166.468C275.032 166.078 277.276 154.911 277.276 154.911L277.671 148.712Z" fill="#FBE3B4"/>
<path d="M276.43 155.529C276.43 155.529 279.229 156.595 280.494 152.885C281.567 149.732 278.696 148.175 277.036 149.759L276.43 155.529Z" fill="#FBE3B4"/>
<path d="M256.221 155.529C256.221 155.529 253.422 156.595 252.158 152.885C251.084 149.732 253.956 148.175 255.615 149.759L256.221 155.529Z" fill="#FBE3B4"/>
<path d="M265.354 128.38C247.159 129.955 255.026 148.968 255.026 148.968C255.313 144.386 259.053 142.381 259.053 142.381C259.053 142.381 265.454 150.615 277.752 149.828L279.558 138.761L265.354 128.38Z" fill="#58553E"/>
<path d="M235.857 243.167L235.035 242.971L244.099 205.46L244.92 205.657L235.857 243.167Z" fill="#58553E"/>
<path d="M295.262 180.487L294.438 180.306L295.349 176.235L296.174 176.418L295.262 180.487Z" fill="#58553E"/>
<path d="M294.943 180.787L294.353 180.185L297.359 177.28L297.949 177.882L294.943 180.787Z" fill="#58553E"/>
<path d="M234.171 196.121L230.045 195.398L230.192 194.569L234.317 195.294L234.171 196.121Z" fill="#58553E"/>
<path d="M234.837 195.608L231.385 193.245L231.864 192.552L235.316 194.914L234.837 195.608Z" fill="#58553E"/>
<path d="M328.686 223.295L325.346 220.777L325.855 220.107L329.195 222.626L328.686 223.295Z" fill="#58553E"/>
<path d="M329.359 220.853L325.271 219.942L325.455 219.12L329.542 220.032L329.359 220.853Z" fill="#58553E"/>
<path d="M327.037 193.218C327.3 191.278 327.503 189.265 327.638 187.186C327.697 186.264 331.081 180.043 331.395 173.757C331.448 172.669 330.719 171.898 330.119 173.367C329.597 174.644 329.286 176.556 328.934 176.452C328.215 176.218 330.145 170.116 328.553 169.749C327.356 169.476 326.871 176.854 326.515 176.81C325.794 176.702 327.599 170.23 326.059 169.916C324.587 169.624 325.006 175.624 324.492 175.672C323.941 175.739 324.621 171.012 323.643 170.763C322.147 170.381 322.266 178.282 321.668 178.476C320.701 178.781 320.569 174.759 319.305 174.931C318.099 175.108 319.444 180.686 319.564 181.733C319.68 182.86 317.83 189.606 317.15 190.837C320.008 192.115 323.177 193.428 327.037 193.218Z" fill="#FBE3B4"/>
<path d="M150.756 273.903C150.686 273.561 143.886 239.44 152.857 207.439L153.672 207.665C144.757 239.465 151.513 273.396 151.583 273.735L150.756 273.903Z" fill="#58553E"/>
<path d="M162.29 413.576L161.454 413.443L182.921 279.696L183.756 279.83L162.29 413.576Z" fill="#58553E"/>
<path d="M193.459 278.249C193.269 273.091 193.111 265.291 192.997 259.595L192.983 258.91C192.566 238.302 192.783 217.841 193.627 198.096C194.444 179.095 195.114 165.911 195.12 165.78L195.964 165.823C195.957 165.953 195.289 179.135 194.471 198.132C193.627 217.86 193.411 238.303 193.827 258.894L193.842 259.578C193.956 265.271 194.114 273.066 194.303 278.218L193.459 278.249Z" fill="#58553E"/>
<path d="M176.557 279.664L175.712 279.63C175.913 274.717 176.096 267.74 176.245 262.133L176.334 258.781C176.957 236.547 176.984 216.508 176.414 199.22C175.774 179.936 171.448 167.918 170.138 164.693L170.92 164.377C172.244 167.634 176.614 179.769 177.259 199.192C177.831 216.497 177.802 236.554 177.178 258.804L177.09 262.156C176.941 267.765 176.758 274.746 176.557 279.664Z" fill="#58553E"/>
<path d="M212.486 249.481C212.234 247.193 210.328 246.454 210.247 246.424L210.468 245.833C210.564 245.868 212.82 246.729 213.116 249.413L212.486 249.481Z" fill="#58553E"/>
<path d="M212.344 248.804C212.34 248.747 212.249 247.367 214.114 245.874L214.511 246.365C212.93 247.632 212.974 248.711 212.976 248.756L212.344 248.804Z" fill="#58553E"/>
<path d="M208.805 365.865L208.191 365.862C208.192 365.682 208.314 347.706 211.171 336.998L211.765 337.156C208.929 347.786 208.807 365.686 208.805 365.865Z" fill="#58553E"/>
<path d="M143.459 285.463C144.369 287.627 146.166 289.034 148.52 291.072C149.328 291.775 150.325 292.072 151.087 292.338C151.95 292.635 157.852 310.244 173.067 311.063C182.951 311.594 190.432 307.872 190.432 307.872L203.546 286.182C203.546 286.182 198.197 285.165 190.191 288.686C187.319 289.949 179.153 298.131 173.469 298.316C167.325 298.515 157.048 291.341 156.036 288.99C155.769 288.364 155.826 287.049 155.654 286.135C155.191 283.69 153.816 281.277 153.197 281.331C151.886 281.456 153.707 284.659 152.853 284.901C152.319 285.065 148.44 279.722 147.57 280.674C146.997 281.315 149.815 284.252 149.391 284.471C148.998 284.682 146.331 280.369 145.437 281.268C144.487 282.214 149.045 285.698 148.575 286.097C148.355 286.299 144.298 281.588 143.575 282.331C142.626 283.339 147.084 286.518 146.684 287.026C146.472 287.252 145.129 285.878 144.211 285.143C143.708 284.729 143.27 285.065 143.459 285.463Z" fill="#FBE3B4"/>
<path d="M197.37 265.024C197.37 265.024 196.283 256.103 201.788 251.782C206.449 248.123 215.653 245.689 221.467 255.968C225.189 262.55 221.778 284.736 211.376 284.411C200.504 284.071 197.874 271.829 197.874 271.829L197.37 265.024Z" fill="#FBE3B4"/>
<path d="M198.831 272.499C198.831 272.499 195.691 273.696 194.235 269.634C192.996 266.181 196.213 264.445 198.094 266.169L198.831 272.499Z" fill="#FBE3B4"/>
<path d="M221.568 272.313C221.568 272.313 224.729 273.457 226.115 269.372C227.294 265.899 224.047 264.216 222.196 265.971L221.568 272.313Z" fill="#FBE3B4"/>
<path d="M184.086 253.391C181.839 256.228 182.213 259.885 182.16 263.465C182.059 270.306 177.6 274.754 174.034 275.806C176.662 276.514 179.052 275.379 179.052 275.379C178.007 277.553 177.976 279.188 179.165 281.292C179.668 282.183 180.358 282.989 180.654 283.964C180.948 284.939 180.683 286.192 179.726 286.6C181.632 287.263 183.622 285.678 184.548 283.929C185.473 282.18 185.859 280.138 187.141 278.618C188.205 277.355 189.659 276.472 190.885 275.356C193.72 272.775 193.869 270.266 193.097 267.471C189.993 256.241 196.672 256.528 196.672 256.528L198.35 252.583C198.35 252.583 188.962 247.23 184.086 253.391Z" fill="#58553E"/>
<path d="M235.542 253.343C237.923 256.076 237.727 259.743 237.952 263.317C238.384 270.146 243.052 274.386 246.664 275.273C244.074 276.101 241.632 275.076 241.632 275.076C242.78 277.2 242.889 278.832 241.805 280.988C241.345 281.901 240.694 282.738 240.446 283.725C240.2 284.712 240.525 285.953 241.501 286.317C239.629 287.067 237.565 285.573 236.556 283.868C235.545 282.163 235.063 280.143 233.708 278.681C232.584 277.469 231.09 276.652 229.811 275.593C226.855 273.144 226.583 270.646 227.22 267.819C229.778 256.459 223.12 257.05 223.12 257.05L221.253 253.185C221.253 253.185 230.373 247.413 235.542 253.343Z" fill="#58553E"/>
<path d="M198.963 267.347C198.963 267.347 198.037 265.298 195.882 265.586C195.882 265.586 192.29 256.833 197.933 250.64C203.109 244.961 212.3 248.335 212.3 248.335C212.3 248.335 217.053 246.262 222.23 250.755C226.482 254.445 224.692 265.271 224.692 265.271C222.535 264.975 221.61 267.347 221.61 267.347C214.922 266.319 212.3 260.048 212.3 260.048C212.3 260.048 207.484 264.618 198.963 267.347Z" fill="#58553E"/>
<path d="M199.024 267.62L199.013 266.989C208.332 266.827 212.093 259.834 212.13 259.763L212.693 260.054C212.654 260.128 208.732 267.451 199.024 267.62Z" fill="#58553E"/>
<path d="M210.578 299.294C194.894 299.294 192.22 287.974 192.22 287.974L202.111 285.651L203.432 277.991H215.832L217.303 285.651L227.245 289.008C227.245 289.008 223.092 299.294 210.578 299.294Z" fill="#FBE3B4"/>
<path d="M174.547 374.238C177.771 376.547 188.37 381.729 194.107 379.05C198.306 377.089 201.564 375.908 204.176 376.083C208.249 376.357 210.508 379.091 216.088 379.091C223.703 379.091 224.504 374.837 230.081 375.734C238.734 377.126 240.667 372.975 240.667 372.975L226.06 324.394L228.938 304.419C228.938 304.419 223.789 291.36 219.588 285.589C210.67 295.899 199.45 285.589 199.45 285.589L187.26 302.27C187.26 302.27 191.684 322.246 191.324 325.038C178.091 350.956 174.547 374.238 174.547 374.238Z" fill="#BCBCBC"/>
<path d="M219.641 285.642C219.641 285.642 225.539 286.501 230.285 290.153C233.333 292.498 237.253 295.904 237.253 295.904C235.715 298.455 233.944 304.367 232.083 311.56L223.428 308.669L219.641 285.642Z" fill="#BCBCBC"/>
<path d="M199.504 285.482C199.504 285.482 193.031 285.41 185.288 290.756C180.784 293.866 177.784 295.434 177.784 295.434C177.784 295.434 181.614 307.104 180.805 311.328L192.887 309.752L202.873 298.536L199.504 285.482Z" fill="#BCBCBC"/>
<path d="M211.103 284.713C206.749 284.713 202.88 281.564 202.825 281.519L203.231 281.033C203.307 281.096 210.85 287.23 216.401 281.908L216.841 282.363C215.022 284.106 213.016 284.713 211.103 284.713Z" fill="#58553E"/>
<path d="M289.763 214.907C299.041 233.594 310.255 235.131 316.086 234.023C322.019 232.895 333.273 226.505 329.174 187.414L317.307 185.481L308.964 209.108L289.763 214.907Z" fill="#58553E"/>
<path d="M238.147 220.631L234.946 219.264L235.279 218.49L238.48 219.857L238.147 220.631Z" fill="#FFA412"/>
<path d="M238.76 220.322L236.418 217.755L237.043 217.19L239.386 219.756L238.76 220.322Z" fill="#FFA412"/>
<path d="M220.487 232.178L220.173 231.398L223.406 230.107L223.721 230.888L220.487 232.178Z" fill="#FFA412"/>
<path d="M219.881 231.856L219.27 231.276L221.673 228.767L222.284 229.347L219.881 231.856Z" fill="#FFA412"/>
<path d="M235.988 200.946L235.674 200.165L238.908 198.875L239.222 199.657L235.988 200.946Z" fill="#FFA412"/>
<path d="M235.383 200.625L234.772 200.045L237.175 197.535L237.786 198.116L235.383 200.625Z" fill="#FFA412"/>
<path d="M289.963 201.229L289.648 200.448L292.881 199.158L293.196 199.94L289.963 201.229Z" fill="#FFA412"/>
<path d="M289.357 200.908L288.744 200.328L291.149 197.818L291.761 198.399L289.357 200.908Z" fill="#FFA412"/>
<path d="M289.219 181.78L286.018 180.413L286.351 179.64L289.552 181.007L289.219 181.78Z" fill="#FFA412"/>
<path d="M289.832 181.473L287.49 178.906L288.116 178.341L290.458 180.908L289.832 181.473Z" fill="#FFA412"/>
<path d="M307.982 214.193L307.668 213.413L310.901 212.122L311.215 212.904L307.982 214.193Z" fill="#FFA412"/>
<path d="M307.378 213.872L306.765 213.291L309.17 210.782L309.782 211.362L307.378 213.872Z" fill="#FFA412"/>
<path d="M303.568 195.098L300.366 193.731L300.699 192.957L303.9 194.324L303.568 195.098Z" fill="#FFA412"/>
<path d="M304.18 194.79L301.838 192.223L302.464 191.659L304.806 194.226L304.18 194.79Z" fill="#FFA412"/>
<path d="M278.499 255.804L275.298 254.437L275.632 253.664L278.832 255.03L278.499 255.804Z" fill="#FFA412"/>
<path d="M279.113 255.497L276.771 252.93L277.397 252.365L279.739 254.931L279.113 255.497Z" fill="#FFA412"/>
<path d="M253.08 244.393L249.879 243.026L250.213 242.252L253.413 243.619L253.08 244.393Z" fill="#FFA412"/>
<path d="M253.693 244.083L251.351 241.516L251.977 240.952L254.319 243.517L253.693 244.083Z" fill="#FFA412"/>
<path d="M273.104 240.203L272.79 239.422L276.024 238.132L276.338 238.913L273.104 240.203Z" fill="#FFA412"/>
<path d="M272.5 239.88L271.887 239.3L274.29 236.79L274.903 237.37L272.5 239.88Z" fill="#FFA412"/>
<path d="M292.738 244.927L292.424 244.147L295.658 242.857L295.972 243.638L292.738 244.927Z" fill="#FFA412"/>
<path d="M292.134 244.606L291.522 244.026L293.924 241.516L294.536 242.096L292.134 244.606Z" fill="#FFA412"/>
<path d="M255.742 226.135L252.541 224.768L252.874 223.993L256.075 225.361L255.742 226.135Z" fill="#FFA412"/>
<path d="M256.355 225.827L254.012 223.26L254.638 222.695L256.981 225.262L256.355 225.827Z" fill="#FFA412"/>
<path d="M288.226 222.965L287.912 222.184L291.145 220.896L291.459 221.676L288.226 222.965Z" fill="#FFA412"/>
<path d="M287.622 222.643L287.009 222.063L289.414 219.553L290.026 220.134L287.622 222.643Z" fill="#FFA412"/>
<path d="M276.666 196.093L273.465 194.726L273.798 193.953L276.999 195.32L276.666 196.093Z" fill="#FFA412"/>
<path d="M277.278 195.786L274.935 193.219L275.561 192.654L277.904 195.221L277.278 195.786Z" fill="#FFA412"/>
<path d="M254.227 208.121L251.026 206.754L251.359 205.981L254.56 207.348L254.227 208.121Z" fill="#FFA412"/>
<path d="M254.841 207.814L252.498 205.247L253.123 204.682L255.467 207.249L254.841 207.814Z" fill="#FFA412"/>
<path d="M255.338 191.963L255.024 191.182L258.257 189.892L258.571 190.672L255.338 191.963Z" fill="#FFA412"/>
<path d="M254.733 191.641L254.121 191.061L256.524 188.552L257.136 189.133L254.733 191.641Z" fill="#FFA412"/>
<path d="M248.441 181.03L245.24 179.663L245.573 178.889L248.774 180.256L248.441 181.03Z" fill="#FFA412"/>
<path d="M249.054 180.721L246.712 178.154L247.337 177.59L249.68 180.157L249.054 180.721Z" fill="#FFA412"/>
<path d="M267.748 183.142L267.433 182.361L270.667 181.071L270.981 181.851L267.748 183.142Z" fill="#FFA412"/>
<path d="M267.142 182.819L266.53 182.239L268.933 179.729L269.545 180.31L267.142 182.819Z" fill="#FFA412"/>
<path d="M270.876 216.522L270.562 215.742L273.795 214.452L274.109 215.233L270.876 216.522Z" fill="#FFA412"/>
<path d="M270.271 216.2L269.658 215.62L272.062 213.11L272.674 213.69L270.271 216.2Z" fill="#FFA412"/>
<path d="M313.486 229.656L313.172 228.876L316.406 227.586L316.72 228.367L313.486 229.656Z" fill="#FFA412"/>
<path d="M312.88 229.335L312.27 228.755L314.673 226.246L315.285 226.825L312.88 229.335Z" fill="#FFA412"/>
<path d="M309.215 214.571L306.014 213.204L306.347 212.431L309.548 213.798L309.215 214.571Z" fill="#FFA412"/>
<path d="M309.829 214.263L307.486 211.696L308.112 211.131L310.455 213.697L309.829 214.263Z" fill="#FFA412"/>
<path d="M323.809 197.495L323.495 196.715L326.729 195.425L327.043 196.206L323.809 197.495Z" fill="#FFA412"/>
<path d="M323.205 197.173L322.593 196.593L324.995 194.083L325.608 194.663L323.205 197.173Z" fill="#FFA412"/>
<path d="M323.886 215.859L320.685 214.492L321.018 213.719L324.219 215.086L323.886 215.859Z" fill="#FFA412"/>
<path d="M324.5 215.551L322.156 212.985L322.783 212.421L325.126 214.985L324.5 215.551Z" fill="#FFA412"/>
<path d="M304.236 258.376L294.095 208.492L294.924 208.325L305.064 258.208L304.236 258.376Z" fill="#58553E"/>
<path d="M309.796 208.173L308.999 207.896L316.91 185.343L317.706 185.62L309.796 208.173Z" fill="#58553E"/>
<path d="M303.943 175.361C303.935 175.297 303.13 168.884 296.833 165.665C290.223 162.286 286.814 157.495 286.106 150.586C284.704 136.912 278.733 132.893 278.672 132.854L279.134 132.149C279.394 132.317 285.504 136.43 286.947 150.501C287.623 157.099 290.887 161.679 297.219 164.917C303.93 168.348 304.752 174.987 304.783 175.267L303.943 175.361Z" fill="#58553E"/>
<path d="M208.594 331.061C200.958 331.061 194.094 328.972 193.979 328.937L194.169 328.334C194.354 328.393 212.793 333.999 222.578 326.666L222.96 327.169C218.974 330.156 213.616 331.061 208.594 331.061Z" fill="#58553E"/>
<path d="M180.686 373.254L180.06 373.154C180.101 372.901 184.235 347.746 189.914 337.824L190.465 338.135C184.842 347.96 180.727 373.003 180.686 373.254Z" fill="#58553E"/>
<path d="M193.434 374.618C193.427 374.485 192.713 361.237 195.931 351.413L196.533 351.609C193.352 361.322 194.06 374.45 194.067 374.582L193.434 374.618Z" fill="#58553E"/>
<path d="M225.908 370.028C225.885 369.87 223.502 354.167 220.313 345.173L220.911 344.962C224.12 354.014 226.512 369.778 226.536 369.935L225.908 370.028Z" fill="#58553E"/>
<path d="M213.067 325.78C212.157 325.78 211.559 325.694 211.538 325.692L211.634 325.068C211.708 325.081 218.909 326.104 221.366 320.667L221.943 320.927C220.019 325.186 215.461 325.78 213.067 325.78Z" fill="#58553E"/>
<path d="M226.32 324.922L225.693 324.833L228.57 304.857L229.197 304.947L226.32 324.922Z" fill="#58553E"/>
<path d="M191.063 325.141L188.151 306.132L188.777 306.035L191.689 325.046L191.063 325.141Z" fill="#58553E"/>
<path d="M215.277 294.153C212.078 294.153 210.641 291.889 210.123 290.754C209.526 291.931 207.887 294.329 204.635 293.834C199.528 293.052 198.312 286.503 198.299 286.438L198.83 286.344C198.841 286.406 199.993 292.583 204.717 293.304C208.517 293.891 209.831 290.126 209.884 289.966L210.398 289.981C210.442 290.139 211.523 293.846 215.662 293.607C219.413 293.384 220.886 288.14 221.049 286.853L221.583 286.921C221.397 288.384 219.854 293.896 215.695 294.142C215.552 294.15 215.413 294.153 215.277 294.153Z" fill="#58553E"/>
<path d="M210.272 300.362L209.591 299.904C208.757 299.341 208.258 298.406 208.258 297.403V292.338H208.797V297.403C208.797 298.228 209.206 298.997 209.893 299.459L210.574 299.918L210.272 300.362Z" fill="#58553E"/>
<path d="M210.301 295.299C209.748 295.299 209.298 294.851 209.298 294.3C209.298 293.75 209.748 293.301 210.301 293.301C210.853 293.301 211.303 293.75 211.303 294.3C211.303 294.851 210.853 295.299 210.301 295.299ZM210.301 293.837C210.044 293.837 209.837 294.046 209.837 294.3C209.837 294.555 210.044 294.762 210.301 294.762C210.557 294.762 210.765 294.555 210.765 294.3C210.765 294.046 210.557 293.837 210.301 293.837Z" fill="#58553E"/>
<path d="M210.301 298.098C209.748 298.098 209.298 297.65 209.298 297.099C209.298 296.549 209.748 296.1 210.301 296.1C210.853 296.1 211.303 296.549 211.303 297.099C211.303 297.65 210.853 298.098 210.301 298.098ZM210.301 296.636C210.044 296.636 209.837 296.845 209.837 297.099C209.837 297.354 210.044 297.561 210.301 297.561C210.557 297.561 210.765 297.354 210.765 297.099C210.765 296.845 210.557 296.636 210.301 296.636Z" fill="#58553E"/>
</g>
</g>
<defs>
<clipPath id="clip0_92_6239">
<rect width="444" height="442" fill="white"/>
</clipPath>
</defs>
</svg>
