<svg width="332" height="204" viewBox="0 0 332 204" fill="none" xmlns="http://www.w3.org/2000/svg">
<path d="M39.8193 62.0574H294.83" stroke="#DED7D4" stroke-width="4.24694" stroke-miterlimit="10"/>
<path d="M291.5 201H43.1499C41.3105 201 39.8193 199.531 39.8193 197.72V48.8713C39.8193 47.06 41.3105 45.5918 43.1499 45.5918H291.5C293.34 45.5918 294.83 47.06 294.83 48.8713V197.72C294.83 199.531 293.34 201 291.5 201Z" stroke="#DBDBDB" stroke-width="4.24694" stroke-miterlimit="10"/>
<path d="M57.069 53.9923C57.069 55.5022 55.8261 56.7271 54.2926 56.7271C52.7591 56.7271 51.5161 55.5022 51.5161 53.9923C51.5161 52.4819 52.7591 51.2576 54.2926 51.2576C55.8261 51.2576 57.069 52.4819 57.069 53.9923Z" fill="#D0021B"/>
<path d="M66.0358 53.9923C66.0358 55.4487 64.8369 56.6302 63.3577 56.6302C61.8786 56.6302 60.6797 55.4487 60.6797 53.9923C60.6797 52.5354 61.8786 51.3545 63.3577 51.3545C64.8369 51.3545 66.0358 52.5354 66.0358 53.9923Z" fill="#FDA22B"/>
<path d="M74.9673 53.9923C74.9673 55.375 73.8291 56.4966 72.4248 56.4966C71.0205 56.4966 69.8823 55.375 69.8823 53.9923C69.8823 52.6092 71.0205 51.488 72.4248 51.488C73.8291 51.488 74.9673 52.6092 74.9673 53.9923Z" fill="#8ED145"/>
<path d="M282.516 101.746H313.665C315.364 101.746 316.741 100.39 316.741 98.7179V73.572C316.741 71.8995 315.364 70.5435 313.665 70.5435H282.516C280.818 70.5435 279.441 71.8995 279.441 73.572V98.7179C279.441 100.39 280.818 101.746 282.516 101.746Z" fill="#BCBCBC"/>
<path d="M306.6 91.3329H292.019H289.386V79.9631H306.6V82.8056V91.3329Z" stroke="#171827" stroke-width="3.55423" stroke-linecap="round" stroke-linejoin="round"/>
<path d="M289.387 79.9631L297.967 86.141L306.599 79.9631" fill="#171827"/>
<path d="M289.387 79.9632L297.992 72.1479L306.599 79.9632" stroke="#171827" stroke-width="3.55423" stroke-linecap="round" stroke-linejoin="round"/>
<path d="M50.3109 152.669H20.6672C18.7946 152.669 17.2769 151.174 17.2769 149.329V121.131C17.2769 119.287 18.7946 117.792 20.6672 117.792H50.3109C52.1835 117.792 53.7017 119.287 53.7017 121.131V149.329C53.7017 151.174 52.1835 152.669 50.3109 152.669Z" fill="#FFA412"/>
<path d="M45.4992 135.556C45.4992 140.881 41.1172 145.197 35.7113 145.197C30.3054 145.197 25.9233 140.881 25.9233 135.556C25.9233 130.232 30.3054 125.916 35.7113 125.916C41.1172 125.916 45.4992 130.232 45.4992 135.556Z" stroke="#171827" stroke-width="4.316" stroke-miterlimit="10"/>
<path d="M27.4463 130.447H44.0128" stroke="#171827" stroke-width="5.1792" stroke-miterlimit="10"/>
<path d="M25.9233 135.556H45.4012" stroke="#171827" stroke-width="5.1792" stroke-miterlimit="10"/>
<path d="M27.4106 140.667H44.0114" stroke="#171827" stroke-width="5.1792" stroke-miterlimit="10"/>
<mask id="mask0_92_464" style="mask-type:alpha" maskUnits="userSpaceOnUse" x="25" y="125" width="21" height="21">
<path d="M45.4972 135.558C45.4972 140.88 41.1157 145.195 35.7128 145.195C30.3049 145.195 25.9233 140.88 25.9233 135.558C25.9233 130.231 30.3049 125.916 35.7128 125.916C41.1157 125.916 45.4972 130.231 45.4972 135.558Z" fill="#FF0000"/>
</mask>
<g mask="url(#mask0_92_464)">
<path d="M65.8333 130.214C61.0357 129.294 53.6979 129.685 46.7189 135.087" stroke="#171827" stroke-width="4.316" stroke-miterlimit="10"/>
<path d="M65.8333 130.214C61.0357 129.294 53.6979 129.685 46.7189 135.087" stroke="#171827" stroke-width="4.316" stroke-miterlimit="10"/>
<path d="M65.8333 130.214C61.0357 129.294 53.6979 129.685 46.7189 135.087" stroke="#171827" stroke-width="4.316" stroke-miterlimit="10"/>
<path d="M65.8333 130.214C61.0357 129.294 53.6979 129.685 46.7189 135.087" stroke="#171827" stroke-width="4.316" stroke-miterlimit="10"/>
<path d="M65.8333 130.214C61.0357 129.294 53.6979 129.685 46.7189 135.087" stroke="#171827" stroke-width="4.316" stroke-miterlimit="10"/>
<path d="M65.8333 130.214C61.0357 129.294 53.6979 129.685 46.7189 135.087" stroke="#171827" stroke-width="4.316" stroke-miterlimit="10"/>
<path d="M65.8333 130.214C61.0357 129.294 53.6979 129.685 46.7189 135.087" stroke="#171827" stroke-width="4.316" stroke-miterlimit="10"/>
<path d="M65.8333 130.214C61.0357 129.294 53.6979 129.685 46.7189 135.087" stroke="#171827" stroke-width="4.316" stroke-miterlimit="10"/>
<path d="M65.8333 130.214C61.0357 129.294 53.6979 129.685 46.7189 135.087" stroke="#171827" stroke-width="4.316" stroke-miterlimit="10"/>
<path d="M65.8333 130.214C61.0357 129.294 53.6979 129.685 46.7189 135.087" stroke="#171827" stroke-width="4.316" stroke-miterlimit="10"/>
<path d="M50.5135 130.214C45.7159 129.294 38.3781 129.685 31.399 135.087" stroke="#171827" stroke-width="4.316" stroke-miterlimit="10"/>
<path d="M50.5135 130.214C45.7159 129.294 38.3781 129.685 31.399 135.087" stroke="#171827" stroke-width="4.316" stroke-miterlimit="10"/>
<path d="M50.5135 130.214C45.7159 129.294 38.3781 129.685 31.399 135.087" stroke="#171827" stroke-width="4.316" stroke-miterlimit="10"/>
<path d="M50.5135 130.214C45.7159 129.294 38.3781 129.685 31.399 135.087" stroke="#171827" stroke-width="4.316" stroke-miterlimit="10"/>
<path d="M50.5135 130.214C45.7159 129.294 38.3781 129.685 31.399 135.087" stroke="#171827" stroke-width="4.316" stroke-miterlimit="10"/>
<path d="M50.5135 130.214C45.7159 129.294 38.3781 129.685 31.399 135.087" stroke="#171827" stroke-width="4.316" stroke-miterlimit="10"/>
<path d="M50.5135 130.214C45.7159 129.294 38.3781 129.685 31.399 135.087" stroke="#171827" stroke-width="4.316" stroke-miterlimit="10"/>
<path d="M50.5135 130.214C45.7159 129.294 38.3781 129.685 31.399 135.087" stroke="#171827" stroke-width="4.316" stroke-miterlimit="10"/>
<path d="M50.5135 130.214C45.7159 129.294 38.3781 129.685 31.399 135.087" stroke="#171827" stroke-width="4.316" stroke-miterlimit="10"/>
<path d="M50.5135 130.214C45.7159 129.294 38.3781 129.685 31.399 135.087" stroke="#171827" stroke-width="4.316" stroke-miterlimit="10"/>
<path d="M43.1439 126.059C40.513 130.447 38.7558 137.507 43.4335 145.198" stroke="#171827" stroke-width="4.316" stroke-miterlimit="10"/>
<path d="M35.1933 130.214C30.3956 129.295 23.0578 129.685 16.079 135.087" stroke="#171827" stroke-width="4.316" stroke-miterlimit="10"/>
<path d="M35.1933 130.214C30.3956 129.295 23.0578 129.685 16.079 135.087" stroke="#171827" stroke-width="4.316" stroke-miterlimit="10"/>
<path d="M35.1933 130.214C30.3956 129.295 23.0578 129.685 16.079 135.087" stroke="#171827" stroke-width="4.316" stroke-miterlimit="10"/>
<path d="M35.1933 130.214C30.3956 129.295 23.0578 129.685 16.079 135.087" stroke="#171827" stroke-width="4.316" stroke-miterlimit="10"/>
<path d="M35.1933 130.214C30.3956 129.295 23.0578 129.685 16.079 135.087" stroke="#171827" stroke-width="4.316" stroke-miterlimit="10"/>
<path d="M35.1933 130.214C30.3956 129.295 23.0578 129.685 16.079 135.087" stroke="#171827" stroke-width="4.316" stroke-miterlimit="10"/>
<path d="M35.1933 130.214C30.3956 129.295 23.0578 129.685 16.079 135.087" stroke="#171827" stroke-width="4.316" stroke-miterlimit="10"/>
<path d="M35.1933 130.214C30.3956 129.295 23.0578 129.685 16.079 135.087" stroke="#171827" stroke-width="4.316" stroke-miterlimit="10"/>
<path d="M35.1933 130.214C30.3956 129.295 23.0578 129.685 16.079 135.087" stroke="#171827" stroke-width="4.316" stroke-miterlimit="10"/>
<path d="M35.1933 130.214C30.3956 129.295 23.0578 129.685 16.079 135.087" stroke="#171827" stroke-width="4.316" stroke-miterlimit="10"/>
<path d="M43.1439 126.059C40.513 130.447 38.7558 137.507 43.4335 145.198" stroke="#171827" stroke-width="4.316" stroke-miterlimit="10"/>
<path d="M35.1933 130.214C30.3956 129.295 23.0578 129.685 16.079 135.087" stroke="#171827" stroke-width="4.316" stroke-miterlimit="10"/>
<path d="M35.1933 130.214C30.3956 129.295 23.0578 129.685 16.079 135.087" stroke="#171827" stroke-width="4.316" stroke-miterlimit="10"/>
<path d="M35.1933 130.214C30.3956 129.295 23.0578 129.685 16.079 135.087" stroke="#171827" stroke-width="4.316" stroke-miterlimit="10"/>
<path d="M35.1933 130.214C30.3956 129.295 23.0578 129.685 16.079 135.087" stroke="#171827" stroke-width="4.316" stroke-miterlimit="10"/>
<path d="M35.1933 130.214C30.3956 129.295 23.0578 129.685 16.079 135.087" stroke="#171827" stroke-width="4.316" stroke-miterlimit="10"/>
<path d="M35.1933 130.214C30.3956 129.295 23.0578 129.685 16.079 135.087" stroke="#171827" stroke-width="4.316" stroke-miterlimit="10"/>
<path d="M35.1933 130.214C30.3956 129.295 23.0578 129.685 16.079 135.087" stroke="#171827" stroke-width="4.316" stroke-miterlimit="10"/>
<path d="M35.1933 130.214C30.3956 129.295 23.0578 129.685 16.079 135.087" stroke="#171827" stroke-width="4.316" stroke-miterlimit="10"/>
<path d="M35.1933 130.214C30.3956 129.295 23.0578 129.685 16.079 135.087" stroke="#171827" stroke-width="4.316" stroke-miterlimit="10"/>
<path d="M35.1933 130.214C30.3956 129.295 23.0578 129.685 16.079 135.087" stroke="#171827" stroke-width="4.316" stroke-miterlimit="10"/>
<path d="M27.8246 126.059C25.1936 130.447 23.4364 137.507 28.1141 145.198" stroke="#171827" stroke-width="4.316" stroke-miterlimit="10"/>
</g>
<mask id="mask1_92_464" style="mask-type:alpha" maskUnits="userSpaceOnUse" x="25" y="125" width="21" height="21">
<path d="M45.4972 135.558C45.4972 140.88 41.1157 145.195 35.7128 145.195C30.3049 145.195 25.9233 140.88 25.9233 135.558C25.9233 130.231 30.3049 125.916 35.7128 125.916C41.1157 125.916 45.4972 130.231 45.4972 135.558Z" fill="#FF0000"/>
</mask>
<g mask="url(#mask1_92_464)">
<path d="M57.3557 126.823C52.8443 130.17 45.684 132.635 38.2778 131.183" stroke="#171827" stroke-width="4.29471" stroke-miterlimit="10"/>
<path d="M57.3557 126.823C52.8443 130.17 45.684 132.635 38.2778 131.183" stroke="#171827" stroke-width="4.29471" stroke-miterlimit="10"/>
<path d="M57.3557 126.823C52.8443 130.17 45.684 132.635 38.2778 131.183" stroke="#171827" stroke-width="4.29471" stroke-miterlimit="10"/>
<path d="M57.3557 126.823C52.8443 130.17 45.684 132.635 38.2778 131.183" stroke="#171827" stroke-width="4.29471" stroke-miterlimit="10"/>
<path d="M57.3557 126.823C52.8443 130.17 45.684 132.635 38.2778 131.183" stroke="#171827" stroke-width="4.29471" stroke-miterlimit="10"/>
<path d="M57.3557 126.823C52.8443 130.17 45.684 132.635 38.2778 131.183" stroke="#171827" stroke-width="4.29471" stroke-miterlimit="10"/>
<path d="M57.3557 126.823C52.8443 130.17 45.684 132.635 38.2778 131.183" stroke="#171827" stroke-width="4.29471" stroke-miterlimit="10"/>
<path d="M57.3557 126.823C52.8443 130.17 45.684 132.635 38.2778 131.183" stroke="#171827" stroke-width="4.29471" stroke-miterlimit="10"/>
<path d="M57.3557 126.823C52.8443 130.17 45.684 132.635 38.2778 131.183" stroke="#171827" stroke-width="4.29471" stroke-miterlimit="10"/>
<path d="M57.3557 126.823C52.8443 130.17 45.684 132.635 38.2778 131.183" stroke="#171827" stroke-width="4.29471" stroke-miterlimit="10"/>
<path d="M46.6113 126.152C49.5063 131.057 50.4633 138.288 46.3438 144.989" stroke="#171827" stroke-width="4.29469" stroke-miterlimit="10"/>
<path d="M42.0368 126.823C37.5252 130.17 30.3647 132.634 22.9587 131.183" stroke="#171827" stroke-width="4.29471" stroke-miterlimit="10"/>
<path d="M42.0368 126.823C37.5252 130.17 30.3647 132.634 22.9587 131.183" stroke="#171827" stroke-width="4.29471" stroke-miterlimit="10"/>
<path d="M42.0368 126.823C37.5252 130.17 30.3647 132.634 22.9587 131.183" stroke="#171827" stroke-width="4.29471" stroke-miterlimit="10"/>
<path d="M42.0368 126.823C37.5252 130.17 30.3647 132.634 22.9587 131.183" stroke="#171827" stroke-width="4.29471" stroke-miterlimit="10"/>
<path d="M42.0368 126.823C37.5252 130.17 30.3647 132.634 22.9587 131.183" stroke="#171827" stroke-width="4.29471" stroke-miterlimit="10"/>
<path d="M42.0368 126.823C37.5252 130.17 30.3647 132.634 22.9587 131.183" stroke="#171827" stroke-width="4.29471" stroke-miterlimit="10"/>
<path d="M42.0368 126.823C37.5252 130.17 30.3647 132.634 22.9587 131.183" stroke="#171827" stroke-width="4.29471" stroke-miterlimit="10"/>
<path d="M42.0368 126.823C37.5252 130.17 30.3647 132.634 22.9587 131.183" stroke="#171827" stroke-width="4.29471" stroke-miterlimit="10"/>
<path d="M42.0368 126.823C37.5252 130.17 30.3647 132.634 22.9587 131.183" stroke="#171827" stroke-width="4.29471" stroke-miterlimit="10"/>
<path d="M42.0368 126.823C37.5252 130.17 30.3647 132.634 22.9587 131.183" stroke="#171827" stroke-width="4.29471" stroke-miterlimit="10"/>
<path d="M46.6113 126.152C49.5063 131.057 50.4633 138.288 46.3438 144.989" stroke="#171827" stroke-width="4.29469" stroke-miterlimit="10"/>
<path d="M42.0368 126.823C37.5252 130.17 30.3647 132.634 22.9587 131.183" stroke="#171827" stroke-width="4.29471" stroke-miterlimit="10"/>
<path d="M42.0368 126.823C37.5252 130.17 30.3647 132.634 22.9587 131.183" stroke="#171827" stroke-width="4.29471" stroke-miterlimit="10"/>
<path d="M42.0368 126.823C37.5252 130.17 30.3647 132.634 22.9587 131.183" stroke="#171827" stroke-width="4.29471" stroke-miterlimit="10"/>
<path d="M42.0368 126.823C37.5252 130.17 30.3647 132.634 22.9587 131.183" stroke="#171827" stroke-width="4.29471" stroke-miterlimit="10"/>
<path d="M42.0368 126.823C37.5252 130.17 30.3647 132.634 22.9587 131.183" stroke="#171827" stroke-width="4.29471" stroke-miterlimit="10"/>
<path d="M42.0368 126.823C37.5252 130.17 30.3647 132.634 22.9587 131.183" stroke="#171827" stroke-width="4.29471" stroke-miterlimit="10"/>
<path d="M42.0368 126.823C37.5252 130.17 30.3647 132.634 22.9587 131.183" stroke="#171827" stroke-width="4.29471" stroke-miterlimit="10"/>
<path d="M42.0368 126.823C37.5252 130.17 30.3647 132.634 22.9587 131.183" stroke="#171827" stroke-width="4.29471" stroke-miterlimit="10"/>
<path d="M42.0368 126.823C37.5252 130.17 30.3647 132.634 22.9587 131.183" stroke="#171827" stroke-width="4.29471" stroke-miterlimit="10"/>
<path d="M42.0368 126.823C37.5252 130.17 30.3647 132.634 22.9587 131.183" stroke="#171827" stroke-width="4.29471" stroke-miterlimit="10"/>
<path d="M31.292 126.152C34.187 131.057 35.144 138.288 31.0244 144.989" stroke="#171827" stroke-width="4.29469" stroke-miterlimit="10"/>
<path d="M26.7165 126.823C22.2052 130.17 15.0448 132.635 7.6387 131.183" stroke="#171827" stroke-width="4.29471" stroke-miterlimit="10"/>
<path d="M26.7165 126.823C22.2052 130.17 15.0448 132.635 7.6387 131.183" stroke="#171827" stroke-width="4.29471" stroke-miterlimit="10"/>
<path d="M26.7165 126.823C22.2052 130.17 15.0448 132.635 7.6387 131.183" stroke="#171827" stroke-width="4.29471" stroke-miterlimit="10"/>
<path d="M26.7165 126.823C22.2052 130.17 15.0448 132.635 7.6387 131.183" stroke="#171827" stroke-width="4.29471" stroke-miterlimit="10"/>
<path d="M26.7165 126.823C22.2052 130.17 15.0448 132.635 7.6387 131.183" stroke="#171827" stroke-width="4.29471" stroke-miterlimit="10"/>
<path d="M26.7165 126.823C22.2052 130.17 15.0448 132.635 7.6387 131.183" stroke="#171827" stroke-width="4.29471" stroke-miterlimit="10"/>
<path d="M26.7165 126.823C22.2052 130.17 15.0448 132.635 7.6387 131.183" stroke="#171827" stroke-width="4.29471" stroke-miterlimit="10"/>
<path d="M26.7165 126.823C22.2052 130.17 15.0448 132.635 7.6387 131.183" stroke="#171827" stroke-width="4.29471" stroke-miterlimit="10"/>
<path d="M26.7165 126.823C22.2052 130.17 15.0448 132.635 7.6387 131.183" stroke="#171827" stroke-width="4.29471" stroke-miterlimit="10"/>
<path d="M26.7165 126.823C22.2052 130.17 15.0448 132.635 7.6387 131.183" stroke="#171827" stroke-width="4.29471" stroke-miterlimit="10"/>
</g>
<path d="M330.069 155.835H304.936C303.867 155.835 302.999 154.981 302.999 153.927C302.999 152.873 303.867 152.019 304.936 152.019H330.069C331.139 152.019 332.006 152.873 332.006 153.927C332.006 154.981 331.139 155.835 330.069 155.835Z" fill="#615F5B"/>
<path d="M312.467 177.905H309.396C308.589 177.905 307.935 177.26 307.935 176.466V173.626C307.935 172.831 308.589 172.187 309.396 172.187H312.467C313.274 172.187 313.928 172.831 313.928 173.626V176.466C313.928 177.26 313.274 177.905 312.467 177.905Z" fill="#FFA412"/>
<path d="M21.3622 191.123H18.2911C17.4842 191.123 16.8301 190.479 16.8301 189.684V186.844C16.8301 186.049 17.4842 185.405 18.2911 185.405H21.3622C22.1691 185.405 22.8233 186.049 22.8233 186.844V189.684C22.8233 190.479 22.1691 191.123 21.3622 191.123Z" fill="#FFA412"/>
<path d="M256.409 29.2791H205.3C204.451 29.2791 203.762 28.6005 203.762 27.764V15.4728C203.762 14.6363 204.451 13.9587 205.3 13.9587H256.409C257.259 13.9587 257.948 14.6363 257.948 15.4728V27.764C257.948 28.6005 257.259 29.2791 256.409 29.2791Z" fill="#FFA412"/>
<path d="M211.143 19.4177H247.491" stroke="#171827" stroke-width="2.54644" stroke-miterlimit="10"/>
<path d="M211.143 23.092H225.948" stroke="#171827" stroke-width="2.54644" stroke-miterlimit="10"/>
<path d="M209.664 27.5461V33.5177L217.288 27.5461H209.664Z" fill="#FFA412"/>
<path d="M130.84 30.1909H106.098C103.695 30.1909 101.748 28.272 101.748 25.9049V3.24886C101.748 1.45467 103.224 0 105.046 0H130.84C132.661 0 134.138 1.45467 134.138 3.24886V26.9416C134.138 28.7363 132.661 30.1909 130.84 30.1909Z" fill="#615F5B"/>
<path d="M125.503 17.3282L123.659 15.5118C123.33 15.1547 122.902 14.96 122.474 14.96C122.045 14.96 121.617 15.1542 121.288 15.4786L120.233 16.5173L120.036 16.4197C119.904 16.3549 119.806 16.3227 119.707 16.2578C118.719 15.6411 117.83 14.8303 116.973 13.7921C116.578 13.3057 116.282 12.8515 116.117 12.4622C116.38 12.2353 116.611 11.9753 116.841 11.7484C116.941 11.6513 117.039 11.5537 117.138 11.4567C117.5 11.0995 117.698 10.678 117.698 10.256C117.698 9.8345 117.5 9.41299 117.138 9.05586L116.216 8.14744C116.117 8.05037 116.018 7.95228 115.919 7.82301C115.722 7.62785 115.491 7.4015 115.294 7.20684C114.964 6.8824 114.536 6.68774 114.108 6.68774C113.68 6.68774 113.284 6.84971 112.922 7.20684L111.77 8.3421C111.342 8.76412 111.078 9.31541 111.012 9.93158C110.946 10.9049 111.21 11.8133 111.44 12.3973C111.967 13.8897 112.79 15.2196 114.009 16.6471C115.491 18.3664 117.236 19.729 119.278 20.7023C120.036 21.0589 121.09 21.4799 122.243 21.5775H122.474C123.264 21.5775 123.922 21.2863 124.449 20.7345L124.482 20.7023C124.647 20.5076 124.845 20.313 125.075 20.1183C125.207 19.9885 125.371 19.8261 125.503 19.6963C126.195 18.983 126.195 18.0092 125.503 17.3282ZM124.746 19.0147C124.614 19.1445 124.482 19.2748 124.35 19.4045C124.12 19.5992 123.922 19.8261 123.692 20.0529C123.362 20.3773 123 20.5398 122.506 20.5398H122.342C121.354 20.4749 120.431 20.0851 119.773 19.7607C117.896 18.8522 116.248 17.5877 114.865 15.966C113.745 14.6356 112.989 13.3701 112.461 12.0401C112.132 11.2615 112 10.6453 112.066 10.0292C112.098 9.67253 112.231 9.3481 112.527 9.08855L113.647 7.98548C113.746 7.8879 113.91 7.75812 114.108 7.75812C114.306 7.75812 114.437 7.85571 114.569 7.98548C114.766 8.18014 114.964 8.3743 115.162 8.56896C115.261 8.66604 115.359 8.79631 115.491 8.89339L116.413 9.80231C116.512 9.89939 116.643 10.094 116.643 10.256C116.643 10.4507 116.512 10.6131 116.413 10.7102L116.117 11.0025C115.821 11.2942 115.557 11.5537 115.294 11.8133L115.261 11.846C114.932 12.1704 114.997 12.4622 115.063 12.6568V12.689C115.293 13.273 115.656 13.7921 116.15 14.441C117.072 15.5767 118.06 16.4519 119.147 17.133C119.278 17.2306 119.443 17.296 119.576 17.3604C119.707 17.4257 119.806 17.4579 119.905 17.5228L119.937 17.5555C120.267 17.7175 120.596 17.6526 120.859 17.3931L122.012 16.2578C122.111 16.1602 122.276 16.0304 122.474 16.0304C122.638 16.0304 122.803 16.1602 122.901 16.2578L124.746 18.0741C125.043 18.3664 125.043 18.6903 124.746 19.0147Z" fill="#171827"/>
<mask id="mask2_92_464" style="mask-type:alpha" maskUnits="userSpaceOnUse" x="37" y="2" width="262" height="199">
<path d="M298.23 2.14233V200.324H37.7896V2.14233H298.23Z" fill="#063353"/>
</mask>
<g mask="url(#mask2_92_464)">
<mask id="mask3_92_464" style="mask-type:luminance" maskUnits="userSpaceOnUse" x="-25" y="-18" width="384" height="252">
<path d="M-24.5122 -17.7578H358.488V233.741H-24.5122V-17.7578Z" fill="white"/>
</mask>
<g mask="url(#mask3_92_464)">
<path d="M128.547 144.482L112.61 142.392L112.755 140.568L94.1151 143.013C94.1151 143.013 83.9416 169.867 92.9957 225.698H105.959L110.479 169.086H112.136L116.801 225.698H129.766C138.82 169.867 128.547 144.482 128.547 144.482Z" fill="white"/>
<path d="M127.276 68.1039C125.119 65.6045 123.392 62.6886 121.924 58.5967C120.348 54.2045 115.189 55.9896 115.189 55.9896C115.189 55.9896 110.889 50.5417 104.42 52.4395C97.9502 54.3368 95.7023 58.8718 95.5705 64.263C95.4382 69.6541 91.1333 70.4971 87.8181 76.7343C81.9653 87.7444 91.8191 97.0187 109.756 94.4459L109.78 94.2743C111.546 94.803 113.711 95.0334 116.354 94.8789C137.902 93.6189 135.822 78.0074 127.276 68.1039Z" fill="white"/>
<path d="M120.221 76.2686C121.992 77.851 125.952 71.8492 124.241 70.1642C122.53 68.4797 121.224 71.1229 121.224 71.1229L120.46 72.9146L119.884 75.3411L119.747 75.9763L120.221 76.2686Z" fill="#FFA412"/>
<path d="M123.414 72.291C123.414 72.291 122.073 71.6969 120.882 73.6113" stroke="white" stroke-width="2.14289" stroke-linecap="round" stroke-linejoin="round"/>
<path d="M99.277 76.087C97.648 77.8113 93.1863 72.1611 94.7469 70.3398C96.3075 68.5184 97.8349 71.044 97.8349 71.044L98.7505 72.7652L99.5329 75.1349L99.7239 75.7566L99.277 76.087Z" fill="#171827"/>
<path d="M95.7539 72.389C95.7539 72.389 97.0387 71.6858 98.39 73.4941" stroke="white" stroke-width="2.14289" stroke-linecap="round" stroke-linejoin="round"/>
<path d="M123.327 64.4396C123.327 72.384 117.178 76.1514 109.592 76.1514C102.007 76.1514 95.8574 72.384 95.8574 64.4396C95.8574 56.4953 102.007 51.0911 109.592 51.0911C117.178 51.0911 123.327 56.4953 123.327 64.4396Z" fill="white"/>
<path d="M115.188 96.5791H103.889V82.1672H115.188V96.5791Z" fill="#FFA412"/>
<path d="M102.24 81.2683C102.24 81.2683 105.385 87.4512 109.255 88.4164C110.288 88.6745 111.392 88.5859 112.389 88.2379C113.846 87.7293 115.692 85.5906 116.006 83.2245L116.152 81.8724C116.152 81.8724 109.266 85.5649 102.24 81.2683Z" fill="white"/>
<path d="M121.461 64.9924C121.461 69.8695 120.761 74.0781 120.063 77.0649C119.379 79.9893 117.455 82.033 114.736 83.6778L114.241 83.9776C111.365 85.7184 107.648 85.7587 104.727 84.0817C101.781 82.3896 99.718 80.1593 99.0833 77.0216C97.9287 71.3136 97.803 64.9924 97.803 64.9924C97.803 64.9924 96.7041 52.6805 109.463 52.92C122.222 53.1589 121.461 64.9924 121.461 64.9924Z" fill="#FFA412"/>
<path d="M108.74 72.6853V73.6973C108.74 73.7979 108.76 73.8945 108.796 73.983C108.938 74.3301 109.346 74.4961 109.715 74.4L110.508 74.1938" stroke="white" stroke-width="2.65434" stroke-linecap="round" stroke-linejoin="round"/>
<path d="M111.398 66.0116L118.186 67.5945C118.186 67.5945 117.878 65.8757 115.101 65.251C112.324 64.6268 111.398 66.0116 111.398 66.0116Z" fill="white"/>
<path d="M107.834 66.0116L100.958 67.5945C100.958 67.5945 101.271 65.8757 104.083 65.251C106.896 64.6268 107.834 66.0116 107.834 66.0116Z" fill="white"/>
<path d="M104.665 76.1514H114.05C114.05 76.1514 113.388 78.6915 109.132 78.6915C105.891 78.6915 104.665 76.1514 104.665 76.1514Z" fill="#171827"/>
<path d="M97.9661 69.0742C97.9661 69.0742 103.067 62.2812 101.891 55.3997C101.891 55.3997 98.1045 57.2768 97.1184 62.1207C96.1323 66.9646 97.9661 69.0742 97.9661 69.0742Z" fill="white"/>
<path d="M121.469 68.8484C121.469 68.8484 115.543 61.82 116.72 54.9385C116.72 54.9385 120.83 57.2774 121.816 62.1208C122.802 66.9652 121.469 68.8484 121.469 68.8484Z" fill="white"/>
<path d="M98.3945 58.1105C98.3945 58.1105 104.247 65.8597 122.168 64.651C122.168 64.651 120.121 53.6001 111.436 52.496C111.436 52.496 101.408 51.317 98.3945 58.1105Z" fill="white"/>
<path d="M82.0577 178.569C81.7973 178.973 96.9733 113.529 92.4677 114.518C92.0571 114.608 84.1652 115.33 82.9927 117.679C79.5927 124.488 77.1543 178.073 77.1543 178.073L82.0577 178.569Z" fill="#FFA412"/>
<path d="M77.1551 178.072C77.1551 178.072 74.709 189.252 83.9562 190.474C84.5654 190.554 85.1542 190.2 85.3549 189.628L85.3815 189.552C85.6026 188.92 85.2814 188.243 84.6619 187.97C83.1545 187.306 80.8156 185.629 81.9758 181.819C81.9758 181.819 83.3128 181.657 84.0502 184.113C84.2401 184.745 84.9602 185.062 85.5576 184.766C85.9652 184.564 86.195 184.132 86.1373 183.685C85.9156 181.965 85.0373 177.825 81.6664 176.714L77.1551 178.072Z" fill="#FFA412"/>
<path d="M80.2666 133.404C80.2666 133.404 89.0107 145.533 89.0567 145.298C89.1027 145.064 92.8801 123.428 92.8801 123.428L81.8226 122.296L80.2666 133.404Z" fill="#171827"/>
<path d="M104.563 94.206C104.936 94.204 82.9525 94.5918 78.9346 121.933L91.5685 123.84L94.1157 144.481H129.36L136.357 106.344C136.357 106.344 131.383 98.0811 116.884 94.0334L104.563 94.206Z" fill="#615F5B"/>
<path d="M93.8179 97.5113C93.8179 97.5113 96.9237 101.574 109.653 101.574C122.265 101.574 125.489 97.2986 125.489 97.2986C125.489 97.2986 118.055 93.2072 109.428 91.8838C109.428 91.8838 101.726 93.2353 93.8179 97.5113Z" fill="#FFA412"/>
<path d="M105.32 70.3247C105.32 70.9046 104.841 71.3749 104.25 71.3749C103.66 71.3749 103.181 70.9046 103.181 70.3247C103.181 69.7447 103.66 69.2744 104.25 69.2744C104.841 69.2744 105.32 69.7447 105.32 70.3247Z" fill="white"/>
<path d="M115.457 70.3247C115.457 70.9046 114.979 71.3749 114.388 71.3749C113.797 71.3749 113.318 70.9046 113.318 70.3247C113.318 69.7447 113.797 69.2744 114.388 69.2744C114.979 69.2744 115.457 69.7447 115.457 70.3247Z" fill="white"/>
<path d="M249.348 117.72C247.753 115.213 238.795 115.301 238.322 115.246C235.9 114.967 239.874 133.949 244.912 150.541C245.878 153.722 249.431 155.379 252.535 154.082C252.568 154.069 252.602 154.054 252.635 154.041C255.09 153.016 256.487 150.449 255.993 147.868C253.597 135.348 251.192 120.619 249.348 117.72Z" fill="#FFA412"/>
<path d="M251.482 124.584L240.045 128.955L238.973 123.61L250.816 120.7L251.482 124.584Z" fill="#171827"/>
<path d="M254.281 137.604C254.281 137.604 248.224 142.445 248.483 142.116C248.741 141.786 252.731 130.532 252.731 130.532L254.281 137.604Z" fill="#171827"/>
<path d="M260.479 125.413L245.344 145.969C243.357 148.667 244.155 152.217 247.073 153.662C249.986 155.104 253.775 153.835 255.291 150.908L267.641 127.08L260.479 125.413Z" fill="#FFA412"/>
<path d="M264.269 129.778C260.812 129.084 258.809 125.878 259.797 122.615C260.785 119.351 264.389 117.269 267.847 117.962C271.304 118.656 273.306 121.863 272.318 125.126C271.33 128.389 267.727 130.472 264.269 129.778Z" fill="#FFA412"/>
<path d="M273.282 107.488L280.009 109.517C280.383 109.63 280.533 110.023 280.343 110.394L272.183 126.34C271.993 126.712 271.535 126.922 271.161 126.808L264.433 124.78C264.058 124.666 263.909 124.274 264.099 123.903L272.26 107.956C272.45 107.585 272.908 107.375 273.282 107.488Z" fill="#FFA412"/>
<path d="M272.647 107.242L279.375 109.272C279.75 109.384 279.899 109.777 279.709 110.148L271.545 126.094C271.355 126.466 270.898 126.675 270.523 126.562L263.795 124.533C263.421 124.42 263.271 124.028 263.462 123.656L271.625 107.711C271.815 107.339 272.273 107.129 272.647 107.242Z" fill="#FFA412"/>
<path d="M271.943 108.826L277.854 110.609L271.203 123.605L265.292 121.821L271.943 108.826Z" fill="#E6E6E6"/>
<path d="M277.813 110.593L265.29 121.726L271.92 108.822L277.813 110.593Z" fill="#171827"/>
<path d="M269.107 116.908C265.921 116.029 262.046 116.662 259.773 122.376L262.193 124.044C264.117 123.602 265.596 121.488 266.043 120.782L270.585 119.627C270.585 119.627 272.294 117.788 269.107 116.908Z" fill="#FFA412"/>
<path d="M238.461 144.5L219.821 142.056L219.966 143.88L204.029 145.969C204.029 145.969 193.756 171.355 202.81 227.186H215.774L220.44 170.574H222.097L226.617 227.186H239.581C248.635 171.355 238.461 144.5 238.461 144.5Z" fill="white"/>
<path d="M214.513 170.574H228.039" stroke="white" stroke-width="2.66081" stroke-linecap="round" stroke-linejoin="round"/>
<path d="M225.651 92.7615C225.278 92.7595 249.625 96.0798 253.642 123.422L241.008 125.329L238.462 145.97H203.217L196.22 107.833C196.22 107.833 204.028 96.8096 218.527 92.7615H225.651Z" fill="#615F5B"/>
<path d="M241.009 125.329L242.105 113.39" stroke="white" stroke-width="2.66081" stroke-linecap="round" stroke-linejoin="round"/>
<path d="M227.966 93.1524V83.6558H216.667V93.264C216.089 93.434 215.126 93.7776 213.631 94.4768L222.443 99.6471L231.453 94.4768C231.453 94.4768 230.023 93.6569 227.966 93.1524Z" fill="#FFA412"/>
<path d="M216.562 84.8156C216.562 84.8156 218.591 90.1227 224.008 89.6645C228.987 89.2435 228.194 81.8887 228.194 81.8887L216.562 84.8156Z" fill="white"/>
<path d="M211.635 77.7569C209.863 79.3393 205.903 73.3375 207.615 71.6525C209.326 69.9679 210.631 72.6112 210.631 72.6112L211.395 74.4029L211.971 76.8293L212.109 77.4646L211.635 77.7569Z" fill="#171827"/>
<path d="M208.441 73.7788C208.441 73.7788 209.781 73.1847 210.972 75.0991" stroke="white" stroke-width="2.14289" stroke-linecap="round" stroke-linejoin="round"/>
<path d="M232.578 77.5753C234.207 79.2996 238.668 73.6494 237.108 71.8276C235.547 70.0062 234.02 72.5318 234.02 72.5318L233.105 74.253L232.322 76.6226L232.131 77.2444L232.578 77.5753Z" fill="#171827"/>
<path d="M236.101 73.8768C236.101 73.8768 234.817 73.1736 233.465 74.9814" stroke="white" stroke-width="2.14289" stroke-linecap="round" stroke-linejoin="round"/>
<path d="M208.527 65.9279C208.527 73.8723 214.677 77.6397 222.262 77.6397C229.848 77.6397 235.997 73.8723 235.997 65.9279C235.997 57.9836 229.848 52.5793 222.262 52.5793C214.677 52.5793 208.527 57.9836 208.527 65.9279Z" fill="white"/>
<path d="M210.395 66.4802C210.395 71.3573 211.094 75.5658 211.793 78.5526C212.476 81.4771 214.401 83.5213 217.119 85.1666L217.614 85.4664C220.491 87.2067 224.208 87.2475 227.129 85.57C230.075 83.8784 232.138 81.6476 232.772 78.5094C233.927 72.8019 234.053 66.4802 234.053 66.4802C234.053 66.4802 235.151 54.1688 222.393 54.4082C209.634 54.6477 210.395 66.4802 210.395 66.4802Z" fill="#FFA412"/>
<path d="M221.45 73.5066V75.2102C221.45 75.3108 221.469 75.4079 221.505 75.4965C221.647 75.8445 222.055 76.0115 222.424 75.9149L223.217 75.7077" stroke="white" stroke-width="2.65866" stroke-linecap="round" stroke-linejoin="round"/>
<path d="M219.421 66.9003L213.08 68.3646C213.08 68.3646 213.368 66.7751 215.962 66.1977C218.556 65.6197 219.421 66.9003 219.421 66.9003Z" fill="white"/>
<path d="M225.049 66.9003L231.171 68.3646C231.171 68.3646 230.892 66.7751 228.388 66.1977C225.883 65.6197 225.049 66.9003 225.049 66.9003Z" fill="white"/>
<path d="M218.081 77.8977H226.327C226.327 77.8977 222.672 82.2773 218.081 77.8977Z" fill="#171827"/>
<path d="M221.109 71.8964C221.109 74.3702 219.074 76.3756 216.562 76.3756C214.051 76.3756 212.014 74.3702 212.014 71.8964C212.014 69.4227 214.051 67.4172 216.562 67.4172C219.074 67.4172 221.109 69.4227 221.109 71.8964Z" stroke="#BCBCBC" stroke-width="2.89604" stroke-miterlimit="10"/>
<path d="M232.281 71.8964C232.281 74.3702 230.245 76.3756 227.734 76.3756C225.222 76.3756 223.186 74.3702 223.186 71.8964C223.186 69.4227 225.222 67.4172 227.734 67.4172C230.245 67.4172 232.281 69.4227 232.281 71.8964Z" stroke="#BCBCBC" stroke-width="2.89604" stroke-miterlimit="10"/>
<path d="M221.109 71.896C221.109 71.896 222.186 70.9056 223.185 71.896" stroke="#BCBCBC" stroke-width="2.89604" stroke-miterlimit="10"/>
<path d="M212.015 71.8952L210.582 71.8608" stroke="#BCBCBC" stroke-width="2.89604" stroke-miterlimit="10"/>
<path d="M232.28 71.8952L233.721 71.8608" stroke="#BCBCBC" stroke-width="2.89604" stroke-miterlimit="10"/>
<path d="M233.889 70.5622C233.889 70.5622 228.788 63.7702 229.964 56.8887C229.964 56.8887 233.75 58.7654 234.736 63.6092C235.723 68.4536 233.889 70.5622 233.889 70.5622Z" fill="white"/>
<path d="M210.387 71.0223C210.387 71.0223 216.312 63.3078 215.136 56.4263C215.136 56.4263 211.026 58.7652 210.039 63.6091C209.054 68.4535 210.387 71.0223 210.387 71.0223Z" fill="white"/>
<path d="M233.46 59.5983C233.46 59.5983 226.911 66.6614 208.989 65.4522C208.989 65.4522 211.734 55.088 220.418 53.9839C220.418 53.9839 230.447 52.8043 233.46 59.5983Z" fill="white"/>
<path d="M241.558 51.3415C241.558 55.9963 237.727 59.7698 233.001 59.7698C228.275 59.7698 224.444 55.9963 224.444 51.3415C224.444 46.6868 228.275 42.9143 233.001 42.9143C237.727 42.9143 241.558 46.6868 241.558 51.3415Z" fill="white"/>
<path d="M218.081 71.4882C218.081 72.0682 217.602 72.5385 217.011 72.5385C216.421 72.5385 215.942 72.0682 215.942 71.4882C215.942 70.9083 216.421 70.438 217.011 70.438C217.602 70.438 218.081 70.9083 218.081 71.4882Z" fill="white"/>
<path d="M228.219 71.4882C228.219 72.0682 227.74 72.5385 227.149 72.5385C226.559 72.5385 226.08 72.0682 226.08 71.4882C226.08 70.9083 226.559 70.438 227.149 70.438C227.74 70.438 228.219 70.9083 228.219 71.4882Z" fill="white"/>
<path d="M197.471 150.962C197.471 150.962 207.593 150.049 214.513 145.552L214.331 141.595L197.464 143.858L197.471 150.962Z" fill="#171827"/>
<path d="M81.2447 117.692L108.65 138.436C108.65 138.436 124.519 148.933 115.89 158.101C108.509 164.043 102.836 158.764 102.836 158.764C102.836 158.764 81.6721 139.527 71.4429 123.426C71.4429 123.426 70.7449 120.994 75.0783 118.442C79.4465 115.871 81.2447 117.692 81.2447 117.692Z" fill="#FFA412"/>
<path d="M83.7448 118.794C84.0132 121.549 81.6598 124.296 78.4883 124.929C75.3168 125.562 72.5282 123.841 72.2599 121.086C71.9915 118.331 74.3449 115.584 77.5164 114.951C80.6879 114.318 83.4764 116.039 83.7448 118.794Z" fill="#FFA412"/>
<path d="M81.0767 114.399C81.0767 114.399 82.6132 117.462 78.993 120.234C75.6932 122.761 73.0247 121.852 71.7466 121.558C67.139 120.503 60.6161 112.128 60.6161 112.128C60.6161 112.128 74.0761 100.214 74.0062 100.481C73.9357 100.748 81.0767 114.399 81.0767 114.399Z" fill="#FFA412"/>
<path d="M80.5109 114.972C80.09 114.281 80.3673 104.734 80.3676 101.199C80.3677 100.347 79.5115 99.7845 78.5693 100.017C77.9558 100.168 77.065 100.629 76.9034 101.564L75.1829 109.27L80.5109 114.972Z" fill="#FFA412"/>
<path d="M77.0247 105.858L69.807 94.8113C69.3463 94.0675 68.2289 93.8991 67.3751 94.4445C66.6368 94.916 66.347 95.7688 66.6991 96.4365L71.2271 105.025L77.0247 105.858Z" fill="#FFA412"/>
<path d="M70.2329 103.255L63.4097 96.1967C62.8302 95.571 61.7297 95.5615 60.9847 96.176C60.3389 96.7086 60.171 97.5424 60.5888 98.1432L66.9532 106.958L70.2329 103.255Z" fill="#FFA412"/>
<path d="M67.5646 107.199L59.9196 100.781C59.2151 100.183 58.034 100.276 57.2957 100.988C56.6017 101.657 56.5433 102.639 57.1621 103.24L63.7048 109.593L67.5646 107.199Z" fill="#FFA412"/>
<path d="M60.5619 111.224L55.1504 107.675C54.6376 107.203 54.6666 106.411 55.2163 105.864C55.742 105.34 56.5775 105.207 57.1665 105.555L63.9778 109.382L60.5619 111.224Z" fill="#FFA412"/>
<path d="M74.2929 107.649C74.2929 107.649 69.6038 111.118 73.7377 116.559" stroke="white" stroke-width="3.30606" stroke-linecap="round" stroke-linejoin="round"/>
<path d="M103.572 145.366C99.0798 150.846 98.1727 157.387 103.689 161.326C105.672 162.742 108.691 163.769 111.426 162.931C120.544 160.14 134.208 140.726 134.208 140.726L129.97 109.717L106.094 141.784L103.572 145.366Z" fill="#FFA412"/>
<path d="M112.824 132.159C112.824 132.159 121.854 143.464 129.354 147.071L133.978 141.011L114.955 129.318L112.824 132.159Z" fill="#171827"/>
<path d="M150.21 93.2846C150.21 93.2846 125.187 99.2017 111.986 127.814C111.986 127.814 120.115 139.534 133.074 144.591L141.677 134.106L150.21 93.2846Z" fill="#BCBCBC"/>
<path d="M137.07 184.128L137.097 233.741H164.677L166.592 184.128H137.07Z" fill="white"/>
<path d="M167.011 184.128L168.926 233.741H196.505L196.532 184.128H167.011Z" fill="white"/>
<path d="M181.575 203.072H153.259V184.128H181.575V203.072Z" fill="white"/>
<path d="M213.834 136.543C215.532 155.021 213.741 168.483 214.236 202.482L197.891 203.157L195.455 139.516L213.834 136.543Z" fill="#FFA412"/>
<path d="M181.232 94.0022C181.232 94.0022 213.383 101.966 219.208 142.163C219.208 142.163 203.472 148.882 187.703 145.992L191.251 132.548L181.232 94.0022Z" fill="#BCBCBC"/>
<path d="M150.081 93.2171C140.33 98.1434 134.2 104.677 134.2 104.677L136.123 188.204H197.571L197.372 105.107C197.372 105.107 189.626 97.6419 181.232 94.0023C174.102 90.9108 157.013 89.7152 150.081 93.2171Z" fill="#BCBCBC"/>
<path d="M185.9 129.579C183.322 129.579 181.232 127.521 181.232 124.981V120.076H190.568V124.981C190.568 127.521 188.478 129.579 185.9 129.579Z" stroke="white" stroke-width="2.158" stroke-miterlimit="10"/>
<path d="M197.471 146.303L198.268 118.979" stroke="white" stroke-width="3.01473" stroke-linecap="round" stroke-linejoin="round"/>
<path d="M135.145 141.748L133.817 118.063" stroke="white" stroke-width="3.01473" stroke-linecap="round" stroke-linejoin="round"/>
<path d="M150.801 62.7083L148.239 50.2269C148.095 49.2104 147.695 47.6415 148.185 46.1672C148.996 43.7282 151.978 39.0443 157.075 41.1885L158.176 46.1305C158.176 46.1305 152.884 47.1828 150.761 54.0024L150.801 62.7083Z" fill="white"/>
<path d="M156.7 43.7649C156.607 45.4052 155.137 52.5809 149.971 55.195C149.971 55.195 145.445 45.6355 156.7 43.7649Z" fill="white"/>
<path d="M174.824 90.9185V69.7241H154.988V90.9185L149.083 93.5698C149.083 93.5698 150.468 102.354 165.114 102.549C179.76 102.744 181.232 94.0023 181.232 94.0023L174.824 90.9185Z" fill="#FFA412"/>
<path d="M157.076 41.1885C157.076 41.1885 160.716 31.7292 171.942 36.7581C178.737 39.8018 180.64 43.8826 181.449 46.7743C181.718 47.7351 181.826 49.2481 181.753 50.1469L179.037 62.7088L168.436 45.3287L158.177 46.1305L157.076 41.1885Z" fill="white"/>
<path d="M179.036 62.7088C179.036 62.7088 180.373 60.6133 183.132 61.644C185.89 62.6746 184.643 69.2724 180.505 70.1134C180.505 70.1134 179.022 70.4318 177.858 69.4319C177.858 69.4319 178.876 64.5583 179.036 62.7088Z" fill="#171827"/>
<path d="M182.585 63.9713C182.585 63.9713 180.275 63.2118 178.634 66.5633" stroke="white" stroke-width="3.01473" stroke-linecap="round" stroke-linejoin="round"/>
<path d="M150.801 62.7088C150.801 62.7088 149.463 60.6133 146.705 61.644C143.947 62.6746 145.195 69.2724 149.332 70.1134C149.332 70.1134 150.815 70.4318 151.978 69.4319C151.978 69.4319 150.961 64.5583 150.801 62.7088Z" fill="#171827"/>
<path d="M147.252 63.9713C147.252 63.9713 149.562 63.2118 151.202 66.5633" stroke="white" stroke-width="3.01473" stroke-linecap="round" stroke-linejoin="round"/>
<path d="M179.312 56.4475C179.314 60.4252 178.917 68.7473 176.435 73.6863C174.104 78.3239 170.248 80.8198 165.194 80.9687C160.14 81.1171 156.375 79.1981 153.357 73.1798C150.34 67.1609 150.484 56.5215 150.484 56.5215C150.484 56.5215 150.484 42.3118 164.741 42.3118C179.758 42.3118 179.312 56.4475 179.312 56.4475Z" fill="#E3C795"/>
<path d="M155.137 76.1453C155.137 76.1453 156.798 84.4472 164.134 85.4014C172.575 86.499 174.824 76.356 174.824 76.356C174.824 76.356 171.094 80.9605 165.194 80.9675C158.615 80.9761 155.137 76.1453 155.137 76.1453Z" fill="white"/>
<path d="M163.881 62.3467V65.6358C163.881 65.7771 163.909 65.9119 163.959 66.0362C164.157 66.5236 164.727 66.757 165.241 66.6222L166.348 66.3319" stroke="white" stroke-width="3.01473" stroke-linecap="round" stroke-linejoin="round"/>
<path d="M167.22 54.4153L175.946 56.6365C175.946 56.6365 175.549 54.2251 171.979 53.3489C168.409 52.4732 167.22 54.4153 167.22 54.4153Z" fill="white"/>
<path d="M161.797 54.4153L153.07 56.6365C153.07 56.6365 153.467 54.2251 157.037 53.3489C160.607 52.4732 161.797 54.4153 161.797 54.4153Z" fill="white"/>
<path d="M160.061 68.9485C160.061 68.9485 161.348 69.9203 164.733 69.9203C167.812 69.9203 169.735 68.9485 169.735 68.9485" stroke="white" stroke-width="3.01473" stroke-linecap="round" stroke-linejoin="round"/>
<path d="M163.539 61.1494C163.539 64.1498 161.069 66.5818 158.023 66.5818C154.977 66.5818 152.507 64.1498 152.507 61.1494C152.507 58.149 154.977 55.717 158.023 55.717C161.069 55.717 163.539 58.149 163.539 61.1494Z" stroke="#171827" stroke-width="4.21026" stroke-miterlimit="10"/>
<path d="M177.088 61.1494C177.088 64.1498 174.618 66.5818 171.572 66.5818C168.526 66.5818 166.056 64.1498 166.056 61.1494C166.056 58.149 168.526 55.717 171.572 55.717C174.618 55.717 177.088 58.149 177.088 61.1494Z" stroke="#171827" stroke-width="4.21026" stroke-miterlimit="10"/>
<path d="M163.538 61.1493C163.538 61.1493 164.844 59.9487 166.057 61.1493" stroke="#171827" stroke-width="4.21026" stroke-miterlimit="10"/>
<path d="M152.508 61.1484L150.659 61.1033" stroke="#171827" stroke-width="4.21026" stroke-miterlimit="10"/>
<path d="M177.088 61.1486L179.152 61.1172" stroke="#171827" stroke-width="4.21026" stroke-miterlimit="10"/>
<path d="M155.137 44.0892C155.137 44.0892 157.786 51.5014 169.737 51.274C177.858 51.1196 179.799 56.9076 179.799 56.9076C179.799 56.9076 178.385 43.967 178.014 44.0892C177.642 44.2115 165.656 40.9395 165.656 40.9395L155.137 44.0892Z" fill="white"/>
<path d="M159.67 60.7762C159.67 61.4819 159.089 62.0548 158.372 62.0548C157.655 62.0548 157.074 61.4819 157.074 60.7762C157.074 60.07 157.655 59.4976 158.372 59.4976C159.089 59.4976 159.67 60.07 159.67 60.7762Z" fill="white"/>
<path d="M171.84 60.7762C171.84 61.4819 171.258 62.0548 170.542 62.0548C169.825 62.0548 169.244 61.4819 169.244 60.7762C169.244 60.07 169.825 59.4976 170.542 59.4976C171.258 59.4976 171.84 60.07 171.84 60.7762Z" fill="white"/>
</g>
</g>
<path d="M61.088 29.2725H9" stroke="#FFA412" stroke-width="17.264" stroke-linecap="round"/>
</svg>
