<svg width="204" height="85" viewBox="0 0 204 85" fill="none" xmlns="http://www.w3.org/2000/svg">
<rect width="204" height="85" fill="#D99BFF"/>
<path d="M66.4205 24.9091V54H63.0682V24.9091H66.4205ZM81.424 54.4545C79.4543 54.4545 77.7261 53.9858 76.2393 53.0483C74.7621 52.1108 73.6068 50.7992 72.7734 49.1136C71.9496 47.428 71.5376 45.4583 71.5376 43.2045C71.5376 40.9318 71.9496 38.9479 72.7734 37.2528C73.6068 35.5578 74.7621 34.2415 76.2393 33.304C77.7261 32.3665 79.4543 31.8977 81.424 31.8977C83.3937 31.8977 85.1172 32.3665 86.5945 33.304C88.0812 34.2415 89.2365 35.5578 90.0604 37.2528C90.8937 38.9479 91.3104 40.9318 91.3104 43.2045C91.3104 45.4583 90.8937 47.428 90.0604 49.1136C89.2365 50.7992 88.0812 52.1108 86.5945 53.0483C85.1172 53.9858 83.3937 54.4545 81.424 54.4545ZM81.424 51.4432C82.9202 51.4432 84.1513 51.0597 85.1172 50.2926C86.0831 49.5256 86.7981 48.517 87.2621 47.267C87.7261 46.017 87.9581 44.6629 87.9581 43.2045C87.9581 41.7462 87.7261 40.3873 87.2621 39.1278C86.7981 37.8684 86.0831 36.8504 85.1172 36.0739C84.1513 35.2973 82.9202 34.9091 81.424 34.9091C79.9278 34.9091 78.6967 35.2973 77.7308 36.0739C76.7649 36.8504 76.05 37.8684 75.5859 39.1278C75.1219 40.3873 74.8899 41.7462 74.8899 43.2045C74.8899 44.6629 75.1219 46.017 75.5859 47.267C76.05 48.517 76.7649 49.5256 77.7308 50.2926C78.6967 51.0597 79.9278 51.4432 81.424 51.4432ZM105.234 62.6364C103.615 62.6364 102.223 62.428 101.058 62.0114C99.8935 61.6042 98.9228 61.0644 98.1463 60.392C97.3793 59.7292 96.7685 59.0189 96.3139 58.2614L98.9844 56.3864C99.2874 56.7841 99.6709 57.2386 100.135 57.75C100.599 58.2708 101.233 58.7206 102.038 59.0994C102.853 59.4877 103.918 59.6818 105.234 59.6818C106.996 59.6818 108.449 59.2557 109.595 58.4034C110.741 57.5511 111.314 56.2159 111.314 54.3977V49.9659H111.03C110.784 50.3636 110.433 50.8561 109.979 51.4432C109.534 52.0208 108.89 52.5369 108.047 52.9915C107.214 53.4366 106.087 53.6591 104.666 53.6591C102.905 53.6591 101.323 53.2424 99.9219 52.4091C98.5298 51.5758 97.4266 50.3636 96.6122 48.7727C95.8073 47.1818 95.4048 45.25 95.4048 42.9773C95.4048 40.7424 95.7978 38.7964 96.5838 37.1392C97.3698 35.4725 98.4635 34.1847 99.8651 33.2756C101.267 32.357 102.886 31.8977 104.723 31.8977C106.143 31.8977 107.27 32.1345 108.104 32.608C108.946 33.072 109.59 33.6023 110.036 34.1989C110.49 34.786 110.84 35.2689 111.087 35.6477H111.428V32.1818H114.666V54.625C114.666 56.5 114.24 58.0246 113.388 59.1989C112.545 60.3826 111.409 61.2491 109.979 61.7983C108.558 62.357 106.977 62.6364 105.234 62.6364ZM105.121 50.6477C106.465 50.6477 107.602 50.34 108.53 49.7244C109.458 49.1089 110.163 48.2235 110.646 47.0682C111.129 45.9129 111.371 44.5303 111.371 42.9205C111.371 41.3485 111.134 39.9612 110.661 38.7585C110.187 37.5559 109.486 36.6136 108.558 35.9318C107.63 35.25 106.484 34.9091 105.121 34.9091C103.7 34.9091 102.517 35.2689 101.57 35.9886C100.632 36.7083 99.9266 37.6742 99.4531 38.8864C98.9891 40.0985 98.7571 41.4432 98.7571 42.9205C98.7571 44.4356 98.9938 45.7756 99.4673 46.9403C99.9503 48.0956 100.661 49.0047 101.598 49.6676C102.545 50.321 103.719 50.6477 105.121 50.6477ZM129.666 54.4545C127.696 54.4545 125.968 53.9858 124.482 53.0483C123.004 52.1108 121.849 50.7992 121.016 49.1136C120.192 47.428 119.78 45.4583 119.78 43.2045C119.78 40.9318 120.192 38.9479 121.016 37.2528C121.849 35.5578 123.004 34.2415 124.482 33.304C125.968 32.3665 127.696 31.8977 129.666 31.8977C131.636 31.8977 133.359 32.3665 134.837 33.304C136.323 34.2415 137.479 35.5578 138.303 37.2528C139.136 38.9479 139.553 40.9318 139.553 43.2045C139.553 45.4583 139.136 47.428 138.303 49.1136C137.479 50.7992 136.323 52.1108 134.837 53.0483C133.359 53.9858 131.636 54.4545 129.666 54.4545ZM129.666 51.4432C131.162 51.4432 132.393 51.0597 133.359 50.2926C134.325 49.5256 135.04 48.517 135.504 47.267C135.968 46.017 136.2 44.6629 136.2 43.2045C136.2 41.7462 135.968 40.3873 135.504 39.1278C135.04 37.8684 134.325 36.8504 133.359 36.0739C132.393 35.2973 131.162 34.9091 129.666 34.9091C128.17 34.9091 126.939 35.2973 125.973 36.0739C125.007 36.8504 124.292 37.8684 123.828 39.1278C123.364 40.3873 123.132 41.7462 123.132 43.2045C123.132 44.6629 123.364 46.017 123.828 47.267C124.292 48.517 125.007 49.5256 125.973 50.2926C126.939 51.0597 128.17 51.4432 129.666 51.4432Z" fill="black"/>
</svg>
