<svg width="745" height="489" viewBox="0 0 745 489" fill="none" xmlns="http://www.w3.org/2000/svg">
<mask id="mask0_92_1604" style="mask-type:luminance" maskUnits="userSpaceOnUse" x="0" y="0" width="745" height="489">
<path d="M745 0H0V489H745V0Z" fill="white"/>
</mask>
<g mask="url(#mask0_92_1604)">
<mask id="mask1_92_1604" style="mask-type:luminance" maskUnits="userSpaceOnUse" x="0" y="4" width="745" height="481">
<path d="M0 4.50391H745V484.496H0V4.50391Z" fill="white"/>
</mask>
<g mask="url(#mask1_92_1604)">
<path d="M351.048 460.814C503.502 460.814 627.09 466 627.09 472.396C627.09 478.792 503.502 483.978 351.048 483.978C198.594 483.978 75.0059 478.792 75.0059 472.396C75.0059 466 198.594 460.814 351.048 460.814Z" fill="url(#paint0_linear_92_1604)"/>
<path d="M512.323 115.782H509.187V45.2981C509.187 22.7681 486.926 4.50391 459.467 4.50391H277.463C250.003 4.50391 227.741 22.7674 227.741 45.2981V431.977C227.741 454.507 250.003 472.772 277.463 472.772H459.467C486.926 472.772 509.187 454.507 509.187 431.977V165.953H512.323V115.782Z" fill="#9D9EA4"/>
<path d="M498.605 45.5824V431.693C498.604 448.519 481.98 462.159 461.471 462.159H278.594C258.086 462.159 241.462 448.519 241.462 431.693V45.5824C241.462 28.757 258.086 15.1165 278.594 15.1165H300.78C297.106 22.5242 301.446 30.9736 310.475 33.988C312.584 34.6919 314.838 35.0548 317.115 35.0561H421.383C431.131 35.0503 439.027 28.562 439.02 20.5643C439.019 18.6964 438.576 16.8466 437.718 15.1165H461.471C481.979 15.1165 498.604 28.757 498.605 45.5824Z" fill="white"/>
<path d="M439.689 212.072C438.474 212.593 437.237 213.086 435.98 213.552C434.835 213.976 433.671 214.375 432.49 214.748C432.059 214.883 431.62 215.019 431.181 215.154C427.709 216.187 424.142 216.993 420.515 217.567C418.72 217.856 416.899 218.083 415.057 218.249C413.535 218.39 411.998 218.491 410.446 218.551C409.34 218.596 408.235 218.615 407.121 218.615C402.711 218.617 398.31 218.278 393.978 217.605C392.848 217.438 391.742 217.238 390.636 217.02C385.288 215.968 380.11 214.4 375.211 212.348C374.772 212.168 374.332 211.975 373.894 211.789C373.243 211.506 372.608 211.21 371.973 210.901C372.278 210.553 372.608 210.212 372.945 209.878C387.369 195.211 413.553 192.916 431.429 204.75C432.606 205.529 433.729 206.36 434.796 207.24C436.226 208.417 437.552 209.677 438.763 211.01C439.085 211.358 439.391 211.711 439.689 212.072Z" fill="#171827"/>
<path d="M408.687 127.303C427.704 127.303 443.12 139.952 443.12 155.556C443.12 171.159 427.704 183.808 408.687 183.808C389.669 183.808 374.252 171.159 374.252 155.556C374.252 139.952 389.669 127.303 408.687 127.303Z" fill="#2E2D41"/>
<path d="M393.258 146.946C405.678 141.376 421.25 145.121 428.04 155.311C434.829 165.501 430.264 178.277 417.845 183.848C405.425 189.418 389.853 185.673 383.064 175.483C376.274 165.293 380.839 152.517 393.258 146.946Z" fill="#ECBB9A"/>
<path d="M432.48 152.17C426.624 155.482 419.672 157.245 412.56 157.222C415.097 158.665 417.986 159.64 421.026 160.08C411.569 161.744 401.795 161.789 392.316 160.212C390.21 159.935 388.176 159.362 386.306 158.518C384.421 157.655 383.072 156.175 382.596 154.447C381.966 151.495 384.77 148.813 387.684 147.006C396.718 141.486 408.297 139.588 419.222 141.835C422.746 142.582 426.275 143.844 428.563 146.166C430.851 148.487 431.529 152.065 429.349 154.456L432.48 152.17Z" fill="#2E2D41"/>
<path d="M391.248 127.693C390.877 124.497 386.103 122.529 382.371 123.495C378.639 124.461 376.188 127.544 375.448 130.697C374.728 133.379 375.34 136.185 377.147 138.497C379.033 140.724 382.5 142.114 385.734 141.548C389.425 140.903 391.982 137.946 392.714 134.908C393.446 131.87 392.719 128.738 391.993 125.699L391.248 127.693Z" fill="#2E2D41"/>
<path d="M443.776 132.259C443.405 129.062 438.632 127.096 434.9 128.061C431.168 129.026 428.717 132.11 427.977 135.262C427.257 137.944 427.869 140.75 429.675 143.062C431.561 145.29 435.028 146.681 438.263 146.115C441.954 145.469 444.511 142.511 445.243 139.474C445.974 136.435 445.248 133.304 444.522 130.264L443.776 132.259Z" fill="#2E2D41"/>
<path d="M407.122 102.8C368.148 102.795 336.549 128.714 336.543 160.69C336.54 180.89 349.366 199.631 370.39 210.142L370.845 210.36C371.222 210.547 371.598 210.728 371.974 210.901C372.61 211.21 373.244 211.505 373.895 211.789C374.335 211.975 374.773 212.169 375.213 212.349C380.111 214.401 385.289 215.969 390.638 217.02C391.744 217.239 392.849 217.438 393.979 217.606C398.312 218.279 402.712 218.617 407.122 218.616C408.236 218.616 409.342 218.597 410.448 218.552C412.001 218.494 413.538 218.393 415.059 218.249C416.902 218.082 418.72 217.855 420.516 217.567C424.143 216.994 427.71 216.188 431.183 215.154C431.622 215.019 432.059 214.884 432.491 214.749C433.676 214.376 434.838 213.977 435.98 213.552C437.236 213.089 438.472 212.595 439.69 212.072C451.898 206.827 461.989 198.787 468.738 188.928C468.769 188.877 468.808 188.825 468.84 188.774C472.439 183.473 474.993 177.738 476.407 171.781C483.839 140.367 458.825 109.959 420.538 103.861C416.117 103.158 411.626 102.802 407.122 102.8ZM467.554 188.021C467.492 188.111 467.436 188.201 467.373 188.285C460.759 197.998 450.81 205.901 438.765 211.011C437.565 211.525 436.345 212.008 435.104 212.458C434.076 212.838 433.025 213.198 431.967 213.533C431.52 213.674 431.064 213.816 430.609 213.945C427.609 214.844 424.536 215.566 421.41 216.107C419.092 216.511 416.75 216.814 414.393 217.014C412.941 217.142 411.467 217.232 409.985 217.277C409.036 217.309 408.08 217.329 407.122 217.329C402.854 217.334 398.596 217.008 394.403 216.358C391.852 215.971 389.33 215.464 386.851 214.839C383.073 213.882 379.403 212.661 375.879 211.191C375.471 211.017 375.063 210.843 374.664 210.663C374.09 210.412 373.511 210.154 372.945 209.878C372.522 209.685 372.099 209.479 371.684 209.273C371.44 209.157 371.197 209.035 370.954 208.912C338.451 192.535 328.283 157.641 348.243 130.973C368.204 104.305 410.735 95.9621 443.238 112.339C474.687 128.185 485.395 161.515 467.554 188.021Z" fill="#9D9EA4"/>
<path d="M285.127 183.85C284.14 183.849 283.199 183.507 282.534 182.908L243.619 148.077C242.727 147.28 241.468 146.825 240.149 146.824H34.5129C28.0157 146.818 22.7497 142.498 22.7427 137.167V76.3231C22.7497 70.9924 28.0157 66.6718 34.5129 66.666H300.929C307.427 66.6718 312.692 70.9924 312.7 76.3231V137.167C312.692 142.498 307.427 146.818 300.929 146.824H293.376C290.777 146.827 288.67 148.555 288.668 150.688V180.95C288.673 182.147 287.778 183.22 286.417 183.65C286.005 183.782 285.568 183.85 285.127 183.85Z" fill="white"/>
<path d="M285.126 183.85C284.138 183.849 283.197 183.507 282.533 182.908L243.619 148.077C242.725 147.28 241.467 146.825 240.148 146.824H34.5129C28.0149 146.818 22.7497 142.498 22.7427 137.167V76.3231C22.7497 70.9924 28.0149 66.6718 34.5129 66.666H300.928C307.426 66.6718 312.691 70.9924 312.698 76.3231V137.167C312.691 142.498 307.426 146.818 300.928 146.824H293.375C290.776 146.827 288.669 148.555 288.666 150.688V180.95C288.672 182.147 287.777 183.22 286.415 183.65C286.004 183.782 285.567 183.849 285.126 183.85ZM34.5129 67.9529C28.8807 67.958 24.3174 71.7027 24.3111 76.3231V137.167C24.3174 141.787 28.8807 145.532 34.5129 145.537H240.148C241.907 145.538 243.585 146.145 244.775 147.208L283.689 182.038C284.421 182.693 285.663 182.737 286.462 182.137C286.867 181.832 287.098 181.402 287.098 180.95V150.688C287.102 147.845 289.91 145.54 293.375 145.537H300.928C306.56 145.532 311.124 141.787 311.13 137.167V76.3231C311.124 71.7027 306.56 67.958 300.928 67.9529H34.5129Z" fill="#9D9EA4"/>
<path d="M285.957 186.553C296.57 186.553 305.173 187.337 305.173 188.304C305.173 189.27 296.57 190.054 285.957 190.054C275.344 190.054 266.741 189.27 266.741 188.304C266.741 187.337 275.344 186.553 285.957 186.553Z" fill="#F1F1F1"/>
<path d="M51.6133 76.605C57.3012 76.605 61.9131 80.3883 61.9131 85.0557C61.9131 89.7224 57.3012 93.5064 51.6133 93.5064C45.9254 93.5064 41.3135 89.7224 41.3135 85.0557C41.3135 80.3883 45.9254 76.605 51.6133 76.605Z" fill="#171827"/>
<path d="M209.95 112.66H46.5301C43.496 112.662 41.0344 110.648 41.0313 108.158C41.0281 105.669 43.485 103.649 46.5184 103.646H46.5301H209.95C212.984 103.646 215.443 105.664 215.443 108.154C215.443 110.643 212.984 112.66 209.95 112.66Z" fill="url(#paint1_linear_92_1604)"/>
<path d="M288.913 131.814H46.529C43.4949 131.819 41.0317 129.804 41.0254 127.316C41.0207 124.827 43.4745 122.805 46.5086 122.801H46.529H288.913C291.946 122.805 294.401 124.827 294.396 127.316C294.39 129.799 291.938 131.81 288.913 131.814Z" fill="url(#paint2_linear_92_1604)"/>
<path d="M374.992 409.029C352.709 420.736 324.276 421.107 301.551 409.988C303.511 406.995 305.994 404.252 308.922 401.849C325.247 388.391 351.779 388.339 368.181 401.733C370.713 403.801 372.912 406.125 374.725 408.649C374.812 408.772 374.906 408.901 374.992 409.029Z" fill="#171827"/>
<path d="M335.204 321.38C354.348 321.38 369.867 334.113 369.867 349.82C369.867 365.527 354.348 378.26 335.204 378.26C316.06 378.26 300.54 365.527 300.54 349.82C300.54 334.113 316.06 321.38 335.204 321.38Z" fill="#2E2D41"/>
<path d="M315.724 349.574C322.558 339.317 338.234 335.546 350.736 341.153C363.239 346.761 367.833 359.623 360.999 369.881C354.165 380.138 338.489 383.908 325.986 378.301C313.484 372.694 308.89 359.831 315.724 349.574Z" fill="#F7CEB1"/>
<path d="M311.252 346.413C317.148 349.747 324.144 351.521 331.305 351.498C328.751 352.951 325.843 353.933 322.782 354.375C332.302 356.051 342.141 356.096 351.683 354.508C353.804 354.229 355.851 353.653 357.733 352.804C359.63 351.934 360.987 350.445 361.467 348.706C362.102 345.733 359.279 343.033 356.346 341.213C347.251 335.657 335.596 333.746 324.598 336.008C321.051 336.76 317.499 338.031 315.195 340.367C312.892 342.704 312.209 346.308 314.404 348.714L311.252 346.413Z" fill="#2E2D41"/>
<path d="M337.327 418.72C298.359 418.709 266.78 392.783 266.792 360.811C266.803 328.84 298.403 302.93 337.37 302.94C376.338 302.95 407.918 328.876 407.905 360.848C407.898 380.569 395.654 398.931 375.416 409.571C364.049 415.551 350.829 418.727 337.327 418.72ZM337.327 304.19C299.21 304.187 268.307 329.538 268.303 360.811C268.3 392.085 299.196 417.441 337.312 417.444C375.43 417.446 406.333 392.096 406.337 360.823V360.811C406.294 329.555 375.422 304.226 337.327 304.19Z" fill="#9D9EA4"/>
<path d="M458.031 390.188C456.67 389.76 455.774 388.684 455.78 387.489V357.226C455.777 355.093 453.67 353.365 451.071 353.363H443.518C437.021 353.357 431.755 349.036 431.747 343.705V282.862C431.755 277.531 437.021 273.21 443.518 273.205H709.935C716.432 273.21 721.698 277.531 721.705 282.862V343.705C721.698 349.037 716.432 353.357 709.935 353.363H504.299C502.979 353.364 501.721 353.819 500.827 354.616L461.913 389.446C461.249 390.045 460.308 390.387 459.321 390.389C458.879 390.388 458.442 390.32 458.031 390.188Z" fill="white"/>
<path d="M458.031 390.187C456.67 389.759 455.774 388.684 455.78 387.488V357.226C455.777 355.093 453.67 353.364 451.071 353.362H443.518C437.021 353.356 431.755 349.035 431.747 343.705V282.861C431.755 277.531 437.021 273.21 443.518 273.204H709.935C716.432 273.21 721.698 277.531 721.704 282.861V343.705C721.698 349.036 716.432 353.356 709.935 353.362H504.299C502.979 353.364 501.721 353.818 500.827 354.615L461.913 389.445C461.249 390.045 460.308 390.387 459.32 390.388C458.879 390.387 458.442 390.32 458.031 390.187ZM443.518 274.491C437.886 274.496 433.323 278.24 433.315 282.861V343.705C433.323 348.326 437.886 352.07 443.518 352.076H451.071C454.536 352.079 457.344 354.383 457.348 357.226V387.488C457.348 388.377 458.228 389.098 459.311 389.098C459.861 389.098 460.386 388.908 460.757 388.576L499.671 353.746C500.862 352.682 502.54 352.077 504.299 352.076H709.935C715.565 352.07 720.13 348.326 720.136 343.705V282.861C720.13 278.24 715.565 274.496 709.935 274.491H443.518Z" fill="#9D9EA4"/>
<path d="M457.698 392.448C468.311 392.448 476.915 393.233 476.915 394.199C476.915 395.165 468.311 395.948 457.698 395.948C447.086 395.948 438.482 395.165 438.482 394.199C438.482 393.233 447.086 392.448 457.698 392.448Z" fill="#F1F1F1"/>
<path d="M464.893 282.499C470.58 282.499 475.192 286.283 475.192 290.95C475.192 295.617 470.58 299.401 464.893 299.401C459.204 299.401 454.593 295.617 454.593 290.95C454.593 286.283 459.204 282.499 464.893 282.499Z" fill="#171827"/>
<path d="M623.229 318.554H459.809C456.776 318.559 454.312 316.545 454.306 314.056C454.301 311.567 456.755 309.545 459.789 309.541H459.809H623.229C626.263 309.545 628.717 311.567 628.711 314.056C628.706 316.539 626.255 318.55 623.229 318.554Z" fill="url(#paint3_linear_92_1604)"/>
<path d="M584.156 337.709H457.189C455.6 337.714 454.309 335.7 454.306 333.211C454.304 330.722 455.589 328.701 457.179 328.696H457.189H584.156C585.745 328.698 587.032 330.717 587.031 333.205C587.03 335.692 585.743 337.708 584.156 337.709Z" fill="url(#paint4_linear_92_1604)"/>
</g>
</g>
<defs>
<linearGradient id="paint0_linear_92_1604" x1="627.09" y1="472.532" x2="39.2828" y2="472.532" gradientUnits="userSpaceOnUse">
<stop stop-color="#FFA412"/>
<stop offset="0.796" stop-color="#171827" stop-opacity="0.94"/>
</linearGradient>
<linearGradient id="paint1_linear_92_1604" x1="215.443" y1="108.206" x2="29.7458" y2="108.206" gradientUnits="userSpaceOnUse">
<stop stop-color="#FFA412"/>
<stop offset="0.796" stop-color="#171827" stop-opacity="0.94"/>
</linearGradient>
<linearGradient id="paint2_linear_92_1604" x1="294.396" y1="127.361" x2="24.6308" y2="127.361" gradientUnits="userSpaceOnUse">
<stop stop-color="#FFA412"/>
<stop offset="0.796" stop-color="#171827" stop-opacity="0.94"/>
</linearGradient>
<linearGradient id="paint3_linear_92_1604" x1="628.711" y1="314.101" x2="443.021" y2="314.101" gradientUnits="userSpaceOnUse">
<stop stop-color="#FFA412"/>
<stop offset="0.796" stop-color="#171827" stop-opacity="0.94"/>
</linearGradient>
<linearGradient id="paint4_linear_92_1604" x1="587.031" y1="333.256" x2="445.718" y2="333.256" gradientUnits="userSpaceOnUse">
<stop stop-color="#FFA412"/>
<stop offset="0.796" stop-color="#171827" stop-opacity="0.94"/>
</linearGradient>
</defs>
</svg>
