<svg width="1440" height="358" viewBox="0 0 1440 358" fill="none" xmlns="http://www.w3.org/2000/svg">
<g clip-path="url(#clip0_92_5820)">
<rect width="1440" height="358" fill="#171827"/>
<path d="M1196.09 104.989C1196.04 102.494 1190.64 100.471 1184.04 100.472C1177.44 100.474 1172.13 102.498 1172.18 104.993C1172.23 107.488 1177.62 109.511 1184.23 109.509C1190.83 109.508 1196.14 107.484 1196.09 104.989Z" fill="#4A1578"/>
<path d="M1301.33 186.681C1301.3 185.668 1299.11 184.847 1296.43 184.847C1293.75 184.848 1291.6 185.669 1291.62 186.683C1291.64 187.697 1293.83 188.517 1296.51 188.517C1299.19 188.516 1301.35 187.695 1301.33 186.681Z" fill="#4A1578"/>
<path d="M975.967 328.562C975.888 324.648 967.428 321.478 957.075 321.48C946.72 321.482 938.389 324.655 938.469 328.569C938.548 332.483 947.008 335.653 957.363 335.651C967.716 335.649 976.047 332.476 975.967 328.562Z" fill="#4A1578"/>
<path d="M1023.09 323.644C1023.06 322.114 1019.75 320.875 1015.7 320.875C1011.65 320.876 1008.39 322.117 1008.42 323.647C1008.46 325.177 1011.76 326.417 1015.81 326.416C1019.86 326.415 1023.12 325.175 1023.09 323.644Z" fill="#4A1578"/>
<path d="M1031.72 78.3298C1026.58 80.2721 1026.62 83.4327 1031.79 85.3885C1036.97 87.3444 1045.33 87.3545 1050.47 85.4122C1055.61 83.4698 1055.57 80.3099 1050.4 78.3541C1045.22 76.3982 1036.86 76.3875 1031.72 78.3298Z" fill="#4A1578"/>
<path d="M1323.24 224.588C1319.83 225.878 1319.85 227.976 1323.29 229.274C1326.72 230.572 1332.27 230.58 1335.69 229.291C1339.1 228 1339.08 225.903 1335.64 224.604C1332.2 223.306 1326.65 223.298 1323.24 224.588Z" fill="#4A1578"/>
<path d="M981.317 60.9218C978.465 62.0002 978.482 63.7545 981.358 64.8404C984.231 65.9263 988.872 65.9322 991.724 64.8539C994.577 63.7756 994.561 62.0218 991.687 60.9359C988.814 59.85 984.172 59.8435 981.317 60.9218Z" fill="#4A1578"/>
<path d="M734.455 214.203C724.128 214.466 716.384 217.845 717.152 221.749C717.924 225.654 726.921 228.606 737.246 228.342C747.573 228.078 755.32 224.701 754.549 220.796C753.778 216.89 744.78 213.939 734.455 214.203Z" fill="#4A1578"/>
<path d="M675.488 164.913C671.449 165.016 668.42 166.337 668.722 167.864C669.023 169.391 672.542 170.545 676.58 170.442C680.617 170.339 683.645 169.018 683.344 167.492C683.042 165.965 679.527 164.81 675.488 164.913Z" fill="#4A1578"/>
</g>
<defs>
<clipPath id="clip0_92_5820">
<rect width="1440" height="358" fill="white"/>
</clipPath>
</defs>
</svg>
